<?xml version="1.0" encoding="UTF-8"?>
<svg version="1.1" viewBox="0 0 2048 658" width="2412" height="776" xmlns="http://www.w3.org/2000/svg">
    <style>
        @keyframes moveOjiva {
            0% { transform: translateX(0); }
            50% { transform: translateX(50px); }
            100% { transform: translateX(0); }
        }
        .animated {
            animation: moveOjiva 2s infinite ease-in-out;
        }
    </style>
    <path class="animated" transform="translate(444,16)" d="m0 0h9l11 3 9 5 9 9 5 9 3 12v17l-4 24-8 28-11 29-13 30-16 33-12 22-14 26-15 25-14 23-14 22-18 27-1 2-1 74-54 1-11 14-9 11-11 13-9 11-10 11-6 7-1 42-40 1-8 7-13 12-11 9-18 14-17 11-23 12-15 5-10 2h-14l-11-4-7-6-6-12-2-9v-28l4-24 7-28 11-33 4-9 1 3-5 24-5 30-2 19v31l3 13 5 8 5 3h12l15-6 16-10 12-10 11-9 15-14 1-1-25-1v-110h110l1 16 11-13 1-2-12-1v-110l96-1 34-51 14-22 17-28 16-28 15-28 16-33 11-28 6-18 4-18 1-9v-10l-2-10-6-10-8-5-3-1h-17l-13 5-11 6-11 8-11 9-7 7-2-1 9-10 7-7 11-9 15-10 11-5z" fill="#FF1C22"/>
</svg>
