<svg xmlns="http://www.w3.org/2000/svg" viewBox="0 0 233.19 407.94"><defs><style>.cls-1{fill:#eb2026;}</style></defs><g id="Capa_2" data-name="Capa 2"><g id="Capa_1-2" data-name="Capa 1"><path class="cls-1" d="M.33,378.65c-.88-11.74.1-23.39,1.6-35,1.15-8.95,2.52-17.84,6-26.39-.26,7.31-.59,14.62-.76,21.93-.3,12.5-.55,25.05,1.91,37.34.87,4.34,1.82,8.89,4.49,12.82,4.09,6,8.83,7.16,15.23,3.75a76.52,76.52,0,0,0,21.62-17.44C56,369.31,62,363.38,66.66,356.33a2.85,2.85,0,0,1,.35-2.06,608,608,0,0,0,43.28-64.47,11.8,11.8,0,0,1,.62-1.23,120.6,120.6,0,0,0,6.54-11.08c11-17.43,20.58-35.66,30.24-53.84,3.5-6.6,7.09-13.15,10.29-19.91.43-.55,1.1-.87,1.46-1.49,8.05-14.58,14.89-29.75,21.62-44.94,10.78-24.3,20.74-48.94,28.56-74.4,5-16.17,9-32.53,10.26-49.47.17-2.44-.41-4.94-.64-7.42a7.47,7.47,0,0,0-.71-4.89c-1.08-12.93-14-18.95-26-13.16-7,3.39-12.41,8.81-18.4,13.51-1,.41-1.45.09-1.3-1C181.74,9.4,191.88.46,207.21,0c10.32-.31,22.5,11.42,24.4,20.56,3.72,18,.19,35.29-3.31,52.61-3.68,18.26-9.21,36.07-15.41,53.63-8.64,24.49-18.32,48.57-29.21,72.16q-6,12.89-12,25.74c-1.86,7.16-5.74,13.42-9.24,19.8-5.41,9.9-9.61,20.49-16.67,29.45-9.74,16.15-19.1,32.55-29.82,48.09a9.6,9.6,0,0,0-.69,1.85c-5.24,9.78-12.64,18-19.26,26.78a12.27,12.27,0,0,1-1.74,1.12,243.93,243.93,0,0,1-31.77,34.89c-8.74,7.8-18,15-29.22,19-4.93,1.73-10.15,2.91-15.49,1.88-8.74-1.67-12.56-8-14.77-15.84a30.22,30.22,0,0,0-1.28-3.13A28.65,28.65,0,0,0,.33,378.65Z"/></g></g></svg>