<svg xmlns="http://www.w3.org/2000/svg" viewBox="0 0 476.69 485.02"><defs><style>.cls-1{fill:#e5e545;}</style></defs><g id="Capa_2" data-name="Capa 2"><g id="objects"><path class="cls-1" d="M331.82,62.32A183.28,183.28,0,0,0,193.51,0C92.45.22,9.08,84.75,10.19,185.81a184.78,184.78,0,0,0,2.58,28.81C17.43,242.17,16,270.5,7.22,297A142.84,142.84,0,0,0,0,340.13C-1,419.54,63.6,485,143,485a142.57,142.57,0,0,0,50.32-9.11,264.82,264.82,0,0,1,95.9-16.81h1.87c101.7,0,185.8-84.26,185.59-186a185.29,185.29,0,0,0-78.18-151A389.82,389.82,0,0,1,331.82,62.32Z"/></g></g></svg>