<svg xmlns="http://www.w3.org/2000/svg" viewBox="0 0 483.44 439.67"><defs><style>.cls-1{fill:#e55399;}</style></defs><g id="Capa_2" data-name="Capa 2"><g id="objects"><path class="cls-1" d="M483.44,231.4a140.38,140.38,0,0,1-65.85,119c-27.51,17.29-53.07,37.43-77,59.36a114.12,114.12,0,0,1-132.33,15.53,241.37,241.37,0,0,0-85.36-28C71.06,390.39,0,362,0,261.32c0-35.57,11.7-68.23,32.61-93.58,17.7-21.45,32.36-45.18,44.86-70A177.31,177.31,0,0,1,375,67.3c15.26,19.27,32.53,36.89,52.19,51.63A140.3,140.3,0,0,1,483.44,231.4Z"/></g></g></svg>