<svg xmlns="http://www.w3.org/2000/svg" viewBox="0 0 526.45 710.17"><defs><style>.cls-1{fill:#ff1c22;}.cls-2{fill:#fdfdfd;}.cls-3{fill:#c3c4ca;}.cls-4{fill:#d8d9dd;}</style></defs><g id="Capa_2" data-name="Capa 2"><g id="Capa_1-2" data-name="Capa 1"><path class="cls-1" d="M472.27,0h10.6l13,3.53,10.6,5.89L517,20l5.88,10.6,3.54,14.13v20L521.74,93l-9.43,33-12.95,34.15L484.05,195.5l-18.84,38.87-14.14,25.91L434.58,290.9l-17.66,29.44-16.49,27.09-16.49,25.91-21.2,31.8-1.18,2.36-1.17,87.15-63.6,1.18-13,16.48-10.6,13-13,15.31-10.6,13-11.78,13-7.06,8.24-1.18,49.47-47.11,1.18-9.42,8.24-15.31,14.13-13,10.6-21.2,16.49-20,13L76.55,701.93l-17.66,5.89-11.78,2.35H30.62l-12.95-4.71L9.42,698.4,2.36,684.26,0,673.66v-33l4.71-28.27,8.25-33,13-38.87L30.62,530l1.18,3.53-5.89,28.27L20,597.11l-2.35,22.38V656l3.53,15.31,5.89,9.42L33,684.26H47.11l17.67-7.06,18.84-11.78,14.13-11.78,13-10.6,17.66-16.49,1.18-1.17-29.44-1.18V494.65H229.66l1.18,18.84,12.95-15.31,1.18-2.35-14.13-1.18V365.1l113.06-1.18,40-60.06L400.43,278l20-33,18.84-33L457,179l18.84-38.87,13-33L495.83,86l4.71-21.19,1.17-10.6V42.4l-2.35-11.78-7.07-11.78L482.87,13l-3.53-1.18h-20L444,17.67l-13,7.06L418.1,34.15l-13,10.6L396.9,53l-2.36-1.18L405.14,40l8.24-8.24,13-10.6L444,9.42,457,3.53Z"/><path class="cls-2" d="M229.66,106H359.21V235.55H229.66V363.92H100.11V234.37H229.66Z"/><path class="cls-3" d="M100.11,494.65H229.66v21.2l-10.6,12.95-28.27,33-15.31,16.49-8.24,9.42-18.85,20L131.91,624.2h-31.8Z"/><path class="cls-4" d="M230.84,365.1H342.72l-5.89,10.6-12.95,17.66-15.31,21.2-35.34,47.11-15.31,18.85-10.6,14.13H230.84Z"/><path class="cls-4" d="M359.21,408.67h1.18v86H298l3.53-5.89L320.34,464l14.14-20,15.31-21.2Z"/><path class="cls-3" d="M228.48,575.91h1.18V624.2H183.73l7.06-8.24,22.38-22.38,8.24-9.42Z"/></g></g></svg>