<?xml version="1.0" encoding="UTF-8"?>
<svg version="1.1" viewBox="0 0 2048 658" width="2412" height="776" xmlns="http://www.w3.org/2000/svg">
	 <style>
         @keyframes rotate3DOjiva {
            0% { transform: perspective(500px) rotateY(0deg); }
            50% { transform: perspective(500px) rotateY(0deg); }
            100% { transform: perspective(500px) rotateY(0deg); }
        }
        .animated {
            animation: rotate3DOjiva 2s infinite linear;
            transform-origin: center;
        }
       
    </style>
<path class="animated" transform="translate(444,16)" d="m0 0h9l11 3 9 5 9 9 5 9 3 12v17l-4 24-8 28-11 29-13 30-16 33-12 22-14 26-15 25-14 23-14 22-18 27-1 2-1 74-54 1-11 14-9 11-11 13-9 11-10 11-6 7-1 42-40 1-8 7-13 12-11 9-18 14-17 11-23 12-15 5-10 2h-14l-11-4-7-6-6-12-2-9v-28l4-24 7-28 11-33 4-9 1 3-5 24-5 30-2 19v31l3 13 5 8 5 3h12l15-6 16-10 12-10 11-9 15-14 1-1-25-1v-110h110l1 16 11-13 1-2-12-1v-110l96-1 34-51 14-22 17-28 16-28 15-28 16-33 11-28 6-18 4-18 1-9v-10l-2-10-6-10-8-5-3-1h-17l-13 5-11 6-11 8-11 9-7 7-2-1 9-10 7-7 11-9 15-10 11-5z" fill="#FF1C22"/>
<path transform="translate(509,141)" d="m0 0h34l9 12 22 33 23 34 79 117 19 28 1-224h36l1 1v298l-1 1h-34l-10-14-26-39-11-16-22-33-17-25-29-43-10-15-27-40-1 225h-36z" fill="#FF1C22"/>
<path transform="translate(1535,223)" d="m0 0h37l1 154 3 10 6 8 7 6 8 4 13 3h16l16-4 11-7 6-8 4-10 1-4 1-152h36l1 1v219l-2 19-5 15-6 11-9 10-9 8-16 8-9 3-10 2-10 1h-16l-18-3-14-5-12-7-11-9-9-11-1-4 9-5 21-11 4 2 5 6 12 7 12 3h21l12-3 10-6 7-7 5-11 1-5v-27l-7 8-11 7-13 4-7 1h-24l-15-3-16-7-11-8-10-10-7-11-5-13-2-9-1-9z" fill="#FDFDFD"/>
<path transform="translate(238,106)" d="m0 0h110v110h-110v109h-110v-110h110z" fill="#FDFDFD"/>
<path transform="translate(1221,219)" d="m0 0 17 1 14 3 13 5 12 7 11 10 7 10 5 10 4 15 1 9v151l-1 1h-35v-13l-11 8-12 5-14 3h-24l-16-3-12-4-13-7-12-11-7-9-5-10-4-16v-25l4-15 6-12 8-10 10-8 16-8 13-4 12-2h25l16 4 16 8 3 2v-19l-2-13-6-12-8-7-11-5-8-2h-21l-13 4-10 6-7 8-6 14-15-1-21-3 1-9 6-15 7-11 9-10 11-8 12-6 14-4zm-6 116-15 3-12 6-7 7-5 10-1 4v13l3 10 6 8 9 7 10 4 11 2h16l14-3 10-5 6-5 6-9 2-6 1-9-2-11-5-10-8-8-10-5-16-3z" fill="#FF1C22"/>
<path transform="translate(851,219)" d="m0 0 17 1 14 3 13 5 12 7 11 10 7 10 6 12 3 12 1 7v92l-3 15-5 13-9 13-7 7-14 9-12 5-12 3-8 1h-27l-16-3-15-6-11-7-11-10-9-14-4-11-3-13v-96l4-17 8-16 11-12 11-8 12-6 14-4 6-1zm-10 36-14 4-10 7-7 8-4 11-1 5v83l3 12 5 9 8 7 10 5 13 3h16l13-3 10-5 9-9 5-10 2-11v-79l-2-10-5-10-5-6-11-7-9-3-5-1z" fill="#FF1C22"/>
<path transform="translate(1418,219)" d="m0 0 18 1 16 4 10 4 11 7 11 10 7 10 7 14 3 11v4l-30 4h-6l-6-14-7-8-10-6-13-4h-22l-16 4-9 6-4 5-2 5v13l4 8 9 6 14 5 27 4 22 4 18 6 13 7 7 6 7 10 4 9 3 14v19l-4 16-6 11-10 11-14 9-12 5-16 4-8 1h-28l-15-3-14-5-11-6-10-8-7-7-9-14-5-13-1-8 10-2 16-2h10l7 14 4 5 11 7 10 4 10 2h17l15-3 10-4 9-8 3-7 1-11-2-9-5-7-8-4-13-4-24-4-25-5-16-6-15-8-9-8-7-11-4-13-1-8v-9l3-16 7-14 9-10 9-7 14-7 15-4 6-1z" fill="#FDFDFD"/>
<path transform="translate(1817,219)" d="m0 0 17 1 16 4 12 5 11 7 11 11 9 14 5 13 2 10-30 4h-7l-5-13-9-10-8-5-9-3-5-1h-22l-13 3-8 4-5 4-4 7-1 4v9l3 8 8 7 17 6 18 3 26 4 18 5 16 8 11 10 7 12 4 15v25l-4 14-7 12-10 10-11 7-10 5-19 5-8 1h-28l-16-3-16-6-14-9-9-8-8-11-7-14-3-10v-3l10-2 17-2h10l4 10 6 8 9 7 12 5 10 2h17l16-3 12-6 5-4 4-7 1-4v-13l-3-8-7-6-10-4-18-4-30-5-15-4-16-7-11-7-9-9-6-12-3-11v-20l4-15 6-11 9-10 10-7 13-6 14-4 7-1z" fill="#FDFDFD"/>
<path transform="translate(944,223)" d="m0 0h37l14 41 27 80 12 36 2 5 3-8 16-47 12-36 16-47 8-24h38l-3 11-17 50-15 43-19 56-15 43-5 14-1 1h-36l-14-40-12-36-16-46-12-36-16-46-4-12z" fill="#FF1C22"/>
<path transform="translate(128,436)" d="m0 0h110v18l-9 11-24 28-13 14-7 8-16 17-14 14h-27z" fill="#C3C4CA"/>
<path transform="translate(239,326)" d="m0 0h95l-5 9-11 15-13 18-30 40-13 16-9 12h-14z" fill="#D8D9DD"/>
<path transform="translate(348,363)" d="m0 0h1v73h-53l3-5 16-21 12-17 13-18z" fill="#D8D9DD"/>
<path transform="translate(515,556)" d="m0 0h11l5 12 11 33v3h2l1-6 14-41 1-1h10v58h-7l-1-45-13 37-3 8h-7l-3-8-13-38-1 46h-7z" fill="#FDFDFD"/>
<path transform="translate(1207,556)" d="m0 0h11l5 12 11 33v3h2l1-6 14-41 1-1h10v58h-7l-1-45-13 37-3 8h-7l-8-22-8-24-1 46h-7z" fill="#FDFDFD"/>
<path transform="translate(913,571)" d="m0 0h9l5 3 3 3 6-5 2-1h10l5 3 3 7v33h-7l-1-29-2-6-2-1h-6l-4 2-2 4-1 30h-7l-1-30-2-5-2-1h-6l-4 2-2 4-1 30h-7l-1-41 1-1h6l1 4 4-4z" fill="#FDFDFD"/>
<path transform="translate(1545,556)" d="m0 0h7v58h-7l-1-4-4 4-3 1h-8l-7-4-4-5-3-8v-10l3-9 4-5 6-3h9l7 4v-18zm-16 21-5 6-2 8 1 10 4 6 4 2h6l5-3 3-6v-13l-4-8-3-2z" fill="#FDFDFD"/>
<path transform="translate(978,571)" d="m0 0h13l5 2 4 4 1 4 1 29 1 4h-8l-2-4-7 4-3 1h-9l-6-3-3-4-1-8 3-5 3-3 12-3 11-2-1-7-3-2h-11l-4 4-2 3-6-1 1-6 5-5zm13 22-16 4-3 3 1 7 3 2h9l5-3 3-4 1-9z" fill="#FDFDFD"/>
<path transform="translate(1829,571)" d="m0 0h10l8 4 4 5 2 6v9h-31l3 9 3 3 3 1h7l5-3 3-5 7 1-2 6-6 6-6 2h-9l-8-3-5-6-3-9v-8l3-9 5-6zm1 6-5 3-3 6v3h24l-1-6-5-5-2-1z" fill="#FDFDFD"/>
<path transform="translate(1576,571)" d="m0 0h10l8 4 4 5 2 6v8l-1 1h-30l3 9 3 3 3 1h7l5-3 3-5 7 1-2 6-6 6-6 2h-9l-8-3-5-6-3-8v-9l3-9 5-6zm1 6-5 3-3 6v3h24l-1-6-5-5-2-1z" fill="#FDFDFD"/>
<path transform="translate(1286,571)" d="m0 0h11l8 5 4 6 2 12-1 1h-31l3 8 4 4 2 1h8l5-4 2-4 7 1-1 5-5 6-7 3h-10l-10-5-5-10v-14l5-10 6-4zm1 6-6 5-1 7h23l-1-7-6-5z" fill="#FDFDFD"/>
<path transform="translate(594,571)" d="m0 0h11l8 5 4 6 2 12-1 1h-31l3 8 4 4 2 1h8l5-4 2-4 7 1-1 5-5 6-7 3h-10l-10-5-5-10v-14l5-10 6-4zm1 6-6 5-1 7h23l-1-7-6-5z" fill="#FDFDFD"/>
<path transform="translate(1422,571)" d="m0 0h10l8 4 4 5 2 5v10h-31l3 9 6 4h8l8-8 6 1-2 6-5 5-7 3h-9l-7-3-5-5-3-6v-15l3-7 4-5zm1 6-6 5-2 7h24l-1-7-6-5z" fill="#FDFDFD"/>
<path transform="translate(237,505)" d="m0 0h1v41h-39l6-7 19-19 7-8z" fill="#C3C4CA"/>
<path transform="translate(1349,571)" d="m0 0h10l8 4 5 6 2 7v9l-3 9-4 5-9 4h-8l-7-3-6-5-3-10v-9l3-9 7-6zm1 6-6 4-2 4v15l3 5 5 4h8l6-5 2-4v-14l-4-7-4-2z" fill="#FDFDFD"/>
<path transform="translate(1737,571)" d="m0 0h11l8 4 4 5 3 9-1 13-5 8-10 5h-9l-8-4-5-6-2-7v-10l3-9 8-7zm1 6-5 4-3 9 1 11 3 5 5 3h8l6-5 2-5v-13l-3-5-5-4z" fill="#FDFDFD"/>
<path transform="translate(657,571)" d="m0 0h11l8 4 4 5 3 9-1 12-4 8-8 5-3 1h-9l-8-4-5-6-2-7v-10l3-9 8-7zm1 6-5 4-3 9 1 11 3 5 5 3h8l6-5 2-5v-13l-4-6-4-3z" fill="#FDFDFD"/>
<path transform="translate(838,571)" d="m0 0h11l8 4 4 5 2 4 1 9-2 11-4 6-10 5h-9l-8-4-5-6-2-5v-14l5-10 6-4zm1 6-5 4-3 8v8l3 8 6 4h8l6-5 2-5v-12l-3-6-5-4z" fill="#FDFDFD"/>
<path transform="translate(1082,571)" d="m0 0h11l6 3 6 6 2 6v13l-3 8-7 6-5 2h-9l-10-5-4-6-2-12 2-10 4-6 6-4zm1 6-6 5-2 5v12l3 6 6 4h7l6-4 3-8v-9l-3-7-5-4z" fill="#FDFDFD"/>
<path transform="translate(1463,571)" d="m0 0h12l6 3 4 5v4h-7l-2-4-2-1h-10l-3 2 1 5 18 6 5 3 2 4v7l-4 6-8 4h-10l-8-3-4-5-1-6 7-1 3 6 3 2h9l4-2 1-7-11-3-11-4-4-6 1-9 6-5z" fill="#FDFDFD"/>
<path transform="translate(1870,571)" d="m0 0h11l7 3 4 6v3l-7 1-3-5-1-1h-11l-2 2v5l21 7 4 4 1 7-3 7-6 4-4 1h-10l-8-4-4-6v-4l7-1 2 5 4 3h9l4-3v-5l-6-3-13-4-5-4-1-2v-8l5-6z" fill="#FDFDFD"/>
<path transform="translate(1675,571)" d="m0 0h12l6 3 4 5v4h-7l-2-4-2-1h-10l-3 3 1 4 19 6 5 4 1 2v8l-3 5-6 4-3 1h-10l-7-3-5-6-1-5 7-1 3 6 4 2h9l4-4-1-5-19-6-5-5-1-7 3-6z" fill="#FDFDFD"/>
<path transform="translate(1130,571)" d="m0 0h10l6 3 3 5 1 6v29h-7l-1-1-1-31-4-4h-7l-5 3-2 7-1 26h-7v-42h7l1 4 5-4z" fill="#FDFDFD"/>
<path transform="translate(1787,571)" d="m0 0h9l6 3 3 4 1 3v33h-7l-1-29-1-6-10-1-5 3-2 3-1 30h-7v-42h6l1 4 5-4z" fill="#FDFDFD"/>
<path transform="translate(774,571)" d="m0 0h9l6 3 3 4 1 3v33h-7l-1-30-1-5-10-1-5 3-2 3-1 30h-7v-42h6l1 4 5-4z" fill="#FDFDFD"/>
<path transform="translate(1620,571)" d="m0 0h11l6 3 4 5 1 5-7 1-2-6-3-1h-9l-5 5-2 11 2 9 4 4 2 1h7l5-4 2-5h7l-1 6-3 5-6 4-4 1h-8l-8-4-5-6-2-7v-10l3-9 8-7z" fill="#FDFDFD"/>
<path transform="translate(1023,571)" d="m0 0h11l6 3 4 5 1 5-7 1-2-6-3-1h-9l-5 5-1 3v14l3 6 4 2h7l4-1 2-6 1-2h7l-1 6-4 6-5 3-4 1h-8l-8-4-4-5-2-4-1-12 2-9 7-8z" fill="#FDFDFD"/>
<path transform="translate(811,555)" d="m0 0h12v6l-2 1-7 1-1 2v6l7 1v5l-7 1-1 36h-7v-37h-6v-5h6v-9l3-6z" fill="#FDFDFD"/>
<path transform="translate(1319,572)" d="m0 0h7v51l-3 6-4 2h-8l-1-4 1-3h7z" fill="#FDFDFD"/>
<path transform="translate(627,572)" d="m0 0h7v51l-3 6-4 2h-8l-1-4 1-3h7z" fill="#FDFDFD"/>
<path transform="translate(1395,571)" d="m0 0h7l3 2-2 6h-7l-5 5-1 6-1 24h-7v-42h7l1 4z" fill="#FDFDFD"/>
<path transform="translate(703,571)" d="m0 0h7l3 2-2 6h-7l-5 5-1 6-1 24h-7v-42h7l1 4z" fill="#FDFDFD"/>
<path transform="translate(884,571)" d="m0 0h7l3 2-2 6h-8l-3 3-2 7-1 25h-7v-42h7l1 4z" fill="#FDFDFD"/>
<path transform="translate(1708,572)" d="m0 0h7v42h-7z" fill="#FDFDFD"/>
<path transform="translate(1649,572)" d="m0 0h7v42h-7z" fill="#FDFDFD"/>
<path transform="translate(740,572)" d="m0 0h7v42h-7z" fill="#FDFDFD"/>
<path transform="translate(1053,572)" d="m0 0h6l1 2-1 40h-6l-1-1v-40z" fill="#FDFDFD"/>
<path transform="translate(1163,606)" d="m0 0h8v13l-5 6-3-1 2-4 2-6h-4z" fill="#FDFDFD"/>
<path transform="translate(1088,555)" d="m0 0h9l-4 6-4 5h-6l4-10z" fill="#FDFDFD"/>
<path transform="translate(1708,556)" d="m0 0h7v8h-7z" fill="#FDFDFD"/>
<path transform="translate(1649,556)" d="m0 0h7v8h-7z" fill="#FDFDFD"/>
<path transform="translate(1319,556)" d="m0 0h7v8h-7z" fill="#FDFDFD"/>
<path transform="translate(740,556)" d="m0 0h7v8h-7z" fill="#FDFDFD"/>
<path transform="translate(627,556)" d="m0 0h7v8h-7z" fill="#FDFDFD"/>
<path transform="translate(1053,556)" d="m0 0h6v8h-6l-1-1v-6z" fill="#FDFDFD"/>
<path transform="translate(373,65)" d="m0 0" fill="#FF1C22"/>
<path transform="translate(374,64)" d="m0 0" fill="#FF1C22"/>
<path transform="translate(375,63)" d="m0 0" fill="#FF1C22"/>
<path transform="translate(376,62)" d="m0 0" fill="#FF1C22"/>
<path transform="translate(377,61)" d="m0 0" fill="#FF1C22"/>
</svg>
