<svg id="Capa_1" data-name="Capa 1" xmlns="http://www.w3.org/2000/svg" xmlns:xlink="http://www.w3.org/1999/xlink" viewBox="0 0 2189.41 724.31"><defs><style>.cls-1{fill:#ff1c22;}.cls-2{fill:#3f3f3f;}.cls-3{fill:url(#Degradado_sin_nombre);}.cls-4{fill:#c3c4ca;}.cls-5{fill:#d8d9dd;}.cls-6{fill:#5e5e5e;}</style><linearGradient id="Degradado_sin_nombre" x1="150.75" y1="254.33" x2="409.85" y2="254.33" gradientUnits="userSpaceOnUse"><stop offset="0" stop-color="#fff"/><stop offset="1"/></linearGradient></defs><path class="cls-1" d="M522.91,19.37h10.6l13,3.53,10.6,5.89,10.6,10.6L573.56,50l3.53,14.13v20l-4.71,28.27-9.42,33-13,34.15-15.31,35.33-18.84,38.87-14.14,25.91-16.48,30.62-17.67,29.44L451.07,366.8l-16.49,25.91-21.2,31.8-1.17,2.36L411,514l-63.6,1.18-12.95,16.48-10.6,13-13,15.31-10.6,12.95-11.78,13-7.06,8.24-1.18,49.47-47.11,1.18L223.77,653l-15.31,14.13-13,10.6-21.2,16.49-20,13L127.2,721.3l-17.67,5.89-11.78,2.35H81.26l-13-4.71-8.25-7.06L53,703.63,50.64,693v-33l4.71-28.27,8.25-33L76.55,560l4.71-10.6,1.18,3.53-5.89,28.27-5.89,35.33-2.35,22.38v36.51l3.53,15.31,5.89,9.42,5.89,3.53H97.75l17.67-7.06,18.84-11.78L148.39,673l13-10.6L179,645.92l1.17-1.17-29.44-1.18V514H280.3l1.18,18.84,12.95-15.31,1.18-2.35L281.48,514V384.47l113.06-1.18,40-60.07,16.49-25.91,20-33,18.85-33,17.66-33,18.85-38.86,12.95-33,7.07-21.2,4.71-21.2,1.18-10.6V61.77L550,50l-7.06-11.78-9.43-5.89L530,31.15H510L494.65,37l-13,7.06-12.95,9.42-13,10.6-8.24,8.25-2.36-1.18,10.6-11.78L464,51.17l13-10.6,17.67-11.78,13-5.89Z" transform="translate(-50.64 -19.37)"/><path class="cls-1" d="M599.47,166.59h40l10.6,14.13L676,219.58l27.09,40,93,137.79,22.38,33,1.17-263.81h42.4l1.18,1.17v351l-1.18,1.18h-40l-11.78-16.49-30.62-45.93-12.95-18.85-25.92-38.86-20-29.45-34.15-50.64L674.84,302,643,254.92l-1.17,265h-42.4Z" transform="translate(-50.64 -19.37)"/><path class="cls-2" d="M1807.82,263.16h43.58l1.18,181.37,3.53,11.78,7.07,9.42,8.24,7.07,9.42,4.71,15.31,3.53H1915l18.84-4.71,13-8.24,7.07-9.43,4.71-11.77,1.18-4.71,1.18-179h42.4l1.17,1.18V522.26l-2.35,22.38-5.89,17.66-7.07,13L1978.59,587l-10.6,9.42-18.84,9.42-10.6,3.53-11.78,2.36L1915,613h-18.85l-21.2-3.54-16.49-5.88-14.13-8.25-12.95-10.6-10.6-12.95L1819.6,567l10.6-5.89,24.73-13,4.71,2.36,5.89,7.06,14.13,8.25,14.14,3.53h24.73l14.13-3.53,11.78-7.07,8.24-8.24,5.89-13,1.18-5.89v-31.8l-8.24,9.43-13,8.24-15.31,4.71-8.24,1.18h-28.27l-17.67-3.53-18.84-8.25-13-9.42-11.78-11.78-8.25-12.95-5.88-15.31L1809,451.6l-1.18-10.6Z" transform="translate(-50.64 -19.37)"/><path class="cls-3" d="M280.3,125.37H409.85V254.92H280.3V383.29H150.75V253.74H280.3Z" transform="translate(-50.64 -19.37)"/><path class="cls-1" d="M1438,258.45l20,1.18,16.48,3.53,15.31,5.89,14.14,8.24,13,11.78,8.25,11.78,5.88,11.77,4.72,17.67,1.17,10.6V518.73l-1.17,1.18h-41.23V504.6l-13,9.42-14.13,5.89L1451,523.44H1422.7l-18.84-3.53-14.13-4.71L1374.42,507,1360.28,494,1352,483.4l-5.89-11.78-4.71-18.84V423.33l4.71-17.66,7.07-14.14,9.42-11.77,11.78-9.43,18.84-9.42,15.31-4.71,14.13-2.35h29.45l18.84,4.71,18.84,9.42,3.54,2.35V348L1491,332.65,1484,318.51l-9.43-8.24-13-5.89-9.42-2.35h-24.74l-15.31,4.71-11.77,7.06-8.25,9.42L1385,339.71l-17.67-1.17L1342.62,335l1.17-10.6,7.07-17.66,8.25-13,10.6-11.78,13-9.42,14.13-7.06,16.49-4.72ZM1431,395.07l-17.67,3.53-14.13,7.07-8.25,8.24L1385,425.69l-1.18,4.71v15.31l3.53,11.78,7.07,9.42,10.6,8.24,11.77,4.71,13,2.36h18.84l16.49-3.53,11.78-5.89,7.07-5.89,7.06-10.6,2.36-7.07,1.17-10.6-2.35-12.95-5.89-11.78-9.42-9.42-11.78-5.89-18.84-3.53Z" transform="translate(-50.64 -19.37)"/><path class="cls-1" d="M1002.25,258.45l20,1.18,16.49,3.53,15.31,5.89,14.14,8.24,13,11.78,8.24,11.78,7.07,14.13,3.53,14.13,1.18,8.25V445.71l-3.53,17.67-5.89,15.31L1081.16,494l-8.24,8.24-16.49,10.6-14.14,5.89-14.13,3.53-9.42,1.18h-31.8l-18.84-3.53-17.67-7.07-12.95-8.24-13-11.78-10.6-16.49-4.71-12.95-3.53-15.32V335l4.71-20,9.42-18.84,13-14.14,13-9.42,14.13-7.06,16.49-4.72,7.07-1.17Zm-11.78,42.4L974,305.56l-11.78,8.24L954,323.22l-4.71,13-1.17,5.89v97.75L951.61,454l5.89,10.6,9.42,8.25,11.78,5.89L994,482.22h18.84l15.31-3.53,11.78-5.89,10.6-10.6,5.89-11.78,2.35-13v-93l-2.35-11.77-5.89-11.78-5.89-7.07-13-8.24L1021.1,302l-5.89-1.18Z" transform="translate(-50.64 -19.37)"/><path class="cls-2" d="M1670,258.45l21.2,1.18,18.84,4.71,11.78,4.71,13,8.24,13,11.78,8.24,11.78,8.25,16.49,3.53,13V335l-35.33,4.71h-7.07l-7.07-16.49-8.24-9.42-11.78-7.06L1683,302h-25.91l-18.84,4.71-10.6,7.06-4.71,5.89-2.36,5.89v15.31l4.71,9.42,10.6,7.07,16.49,5.89,31.8,4.71,25.91,4.71,21.2,7.07,15.31,8.24,8.24,7.07,8.25,11.77,4.71,10.6,3.53,16.49v22.38l-4.71,18.84-7.06,13-11.78,12.95-16.49,10.6-14.13,5.89-18.85,4.71-9.42,1.18h-33l-17.66-3.53L1621.74,514l-13-7.07L1597,497.53l-8.25-8.24-10.6-16.49-5.88-15.31-1.18-9.43,11.78-2.35,18.84-2.36h11.78l8.24,16.49,4.71,5.89,13,8.24,11.77,4.72L1663,481h20l17.67-3.53,11.78-4.71,10.6-9.42,3.53-8.25,1.18-12.95-2.36-10.6-5.89-8.25-9.42-4.71-15.31-4.71-28.27-4.71-29.44-5.89-18.84-7.07-17.67-9.42-10.6-9.42-8.24-12.95L1577,349.13l-1.18-9.42v-10.6l3.53-18.84,8.25-16.49,10.6-11.78,10.6-8.24,16.48-8.24,17.67-4.72,7.07-1.17Z" transform="translate(-50.64 -19.37)"/><path class="cls-2" d="M2139.94,258.45l20,1.18,18.85,4.71,14.13,5.89,13,8.24,12.95,13,10.6,16.48,5.89,15.31L2237.7,335l-35.34,4.71h-8.24l-5.89-15.31-10.6-11.78-9.42-5.88-10.6-3.54-5.89-1.17h-25.91l-15.31,3.53-9.42,4.71-5.89,4.71-4.71,8.24-1.18,4.72v10.6l3.53,9.42,9.43,8.24,20,7.07,21.2,3.53,30.62,4.71,21.2,5.89,18.84,9.42,13,11.78,8.24,14.13,4.71,17.67v29.44l-4.71,16.49-8.24,14.13-11.78,11.78-13,8.24-11.77,5.89-22.38,5.89-9.42,1.18h-33L2107,519.91l-18.85-7.07-16.49-10.6L2061,492.82l-9.43-13-8.24-16.48-3.53-11.78v-3.54l11.77-2.35,20-2.36h11.78l4.71,11.78,7.07,9.42,10.6,8.25,14.13,5.89L2131.7,481h20l18.84-3.53,14.14-7.07,5.89-4.71,4.71-8.24,1.17-4.71V437.46l-3.53-9.42L2184.7,421l-11.78-4.71-21.2-4.72-35.33-5.88L2098.72,401l-18.84-8.25-13-8.24-10.6-10.6-7.06-14.14-3.54-13V323.22l4.72-17.66,7.06-13,10.6-11.77,11.78-8.25,15.31-7.06,16.49-4.72,8.24-1.17Z" transform="translate(-50.64 -19.37)"/><path class="cls-1" d="M1111.78,263.16h43.58l16.49,48.29,31.79,94.22,14.14,42.39,2.35,5.89,3.54-9.42,18.84-55.35,14.13-42.4,18.85-55.35,9.42-28.27h44.75l-3.53,13-20,58.88-17.67,50.64-22.38,66-17.66,50.64-5.89,16.49-1.18,1.18h-42.4l-16.48-47.11-14.14-42.4-18.84-54.18-14.13-42.4-18.85-54.17-4.71-14.13Z" transform="translate(-50.64 -19.37)"/><path class="cls-4" d="M150.75,514H280.3v21.2l-10.6,12.95-28.26,33-15.32,16.49-8.24,9.42-18.84,20-16.49,16.49h-31.8Z" transform="translate(-50.64 -19.37)"/><path class="cls-5" d="M281.48,384.47H393.36l-5.89,10.6-13,17.66-15.31,21.2L323.88,481l-15.31,18.84L298,514H281.48Z" transform="translate(-50.64 -19.37)"/><path class="cls-5" d="M409.85,428H411v86H348.61l3.53-5.89L371,483.4l14.13-20,15.31-21.2Z" transform="translate(-50.64 -19.37)"/><path class="cls-6" d="M606.53,655.35h13l5.89,14.13,13,38.86v3.54h2.36l1.18-7.07,16.48-48.29,1.18-1.17h11.78v68.3h-8.25l-1.17-53-15.31,43.57L643,723.65H634.8l-3.53-9.42L616,669.48l-1.18,54.17h-8.25Z" transform="translate(-50.64 -19.37)"/><path class="cls-6" d="M1421.53,655.35h13l5.89,14.13,13,38.86v3.54h2.36l1.18-7.07,16.49-48.29,1.17-1.17h11.78v68.3h-8.24l-1.18-53-15.31,43.57-3.53,9.42h-8.25l-9.42-25.91L1431,669.48l-1.18,54.17h-8.24Z" transform="translate(-50.64 -19.37)"/><path class="cls-6" d="M1075.27,673h10.6l5.89,3.53,3.53,3.54,7.07-5.89,2.35-1.18h11.78l5.89,3.53,3.53,8.25v38.86h-8.24l-1.18-34.15-2.35-7.07-2.36-1.17h-7.07l-4.71,2.35-2.35,4.71-1.18,35.33h-8.24l-1.18-35.33-2.36-5.89-2.35-1.17h-7.07l-4.71,2.35-2.35,4.71L1067,723.65h-8.25l-1.17-48.28,1.17-1.18h7.07l1.18,4.71,4.71-4.71Z" transform="translate(-50.64 -19.37)"/><path class="cls-6" d="M1819.6,655.35h8.24v68.3h-8.24l-1.18-4.71-4.71,4.71-3.53,1.18h-9.42l-8.25-4.71-4.71-5.89-3.53-9.42V693l3.53-10.6,4.71-5.89,7.07-3.53h10.6l8.24,4.71v-21.2Zm-18.84,24.73-5.89,7.06-2.36,9.43,1.18,11.77,4.71,7.07,4.71,2.36h7.07l5.89-3.54,3.53-7.06V691.86l-4.71-9.43-3.53-2.35Z" transform="translate(-50.64 -19.37)"/><path class="cls-6" d="M1151.82,673h15.31l5.89,2.36,4.71,4.71,1.18,4.71,1.18,34.15,1.18,4.71h-9.42l-2.36-4.71-8.24,4.71-3.54,1.18h-10.6l-7.06-3.53-3.54-4.71-1.17-9.42,3.53-5.89,3.53-3.54,14.14-3.53,13-2.35-1.18-8.25-3.53-2.35h-13l-4.71,4.71-2.35,3.53-7.07-1.18,1.18-7.06,5.89-5.89Zm15.31,25.91-18.84,4.71-3.53,3.54,1.18,8.24,3.53,2.36h10.6l5.89-3.54,3.53-4.71,1.18-10.6Z" transform="translate(-50.64 -19.37)"/><path class="cls-6" d="M2154.08,673h11.77l9.43,4.71,4.71,5.89,2.35,7.07v10.6h-36.51l3.54,10.6,3.53,3.53,3.53,1.18h8.25l5.88-3.54,3.54-5.88,8.24,1.17-2.35,7.07-7.07,7.07-7.07,2.35h-10.6l-9.42-3.53-5.89-7.07-3.53-10.6v-9.42l3.53-10.6,5.89-7.07Zm1.17,7.07-5.88,3.53-3.54,7.07v3.53h28.27l-1.18-7.07-5.89-5.88-2.35-1.18Z" transform="translate(-50.64 -19.37)"/><path class="cls-6" d="M1856.11,673h11.78l9.42,4.71,4.71,5.89,2.36,7.07v9.42l-1.18,1.18h-35.33l3.53,10.6,3.53,3.53,3.53,1.18h8.25l5.89-3.54,3.53-5.88,8.25,1.17-2.36,7.07-7.07,7.07-7.06,2.35h-10.6l-9.42-3.53-5.89-7.07-3.54-9.42v-10.6l3.54-10.6,5.89-7.07Zm1.18,7.07-5.89,3.53-3.53,7.07v3.53h28.26l-1.18-7.07-5.89-5.88-2.35-1.18Z" transform="translate(-50.64 -19.37)"/><path class="cls-6" d="M1514.57,673h13l9.42,5.89,4.71,7.07L1544,700.1l-1.18,1.18h-36.51l3.54,9.42,4.71,4.71,2.35,1.18h9.42l5.89-4.71,2.36-4.71,8.24,1.17-1.18,5.89-5.88,7.07-8.25,3.53h-11.78L1504,718.94l-5.89-11.77V690.68L1504,678.9l7.06-4.71Zm1.17,7.07-7.06,5.89-1.18,8.24h27.09l-1.18-8.24-7.07-5.89Z" transform="translate(-50.64 -19.37)"/><path class="cls-6" d="M699.57,673h13L722,678.9l4.71,7.07L729,700.1l-1.18,1.18H691.33l3.53,9.42,4.71,4.71,2.36,1.18h9.42l5.89-4.71,2.36-4.71,8.24,1.17-1.18,5.89-5.89,7.07-8.24,3.53H700.75L689,718.94l-5.88-11.77V690.68L689,678.9l7.07-4.71Zm1.18,7.07L693.69,686l-1.18,8.24H719.6L718.42,686l-7.07-5.89Z" transform="translate(-50.64 -19.37)"/><path class="cls-6" d="M1674.74,673h11.78l9.42,4.71,4.71,5.89,2.35,5.89v11.78h-36.51l3.54,10.6,7.06,4.71h9.43l9.42-9.42,7.06,1.17-2.35,7.07-5.89,5.89-8.24,3.53h-10.6l-8.25-3.53-5.89-5.89-3.53-7.07V690.68l3.53-8.25,4.71-5.89Zm1.18,7.07-7.07,5.89-2.36,8.24h28.27l-1.18-8.24-7.06-5.89Z" transform="translate(-50.64 -19.37)"/><path class="cls-4" d="M279.12,595.28h1.18v48.29H234.37l7.07-8.25L263.81,613l8.25-9.42Z" transform="translate(-50.64 -19.37)"/><path class="cls-6" d="M1588.76,673h11.78l9.42,4.71,5.89,7.07,2.36,8.24v10.6l-3.54,10.6-4.71,5.89-10.6,4.71h-9.42l-8.24-3.53-7.07-5.89-3.53-11.78V693l3.53-10.6,8.25-7.06Zm1.18,7.07-7.06,4.71-2.36,4.71v17.67l3.53,5.88,5.89,4.72h9.42l7.07-5.89,2.36-4.71V690.68l-4.72-8.25-4.71-2.35Z" transform="translate(-50.64 -19.37)"/><path class="cls-6" d="M2045.72,673h13l9.42,4.71,4.71,5.89,3.54,10.6-1.18,15.31-5.89,9.42-11.78,5.89h-10.6l-9.42-4.71-5.89-7.07-2.35-8.24V693l3.53-10.6,9.42-8.24Zm1.18,7.07-5.89,4.71-3.53,10.6,1.18,13,3.53,5.89,5.89,3.54h9.42l7.07-5.89,2.35-5.89V690.68l-3.53-5.89-5.89-4.71Z" transform="translate(-50.64 -19.37)"/><path class="cls-6" d="M773.77,673h13l9.42,4.71,4.71,5.89,3.53,10.6-1.18,14.13-4.71,9.43-9.42,5.88-3.53,1.18H775l-9.42-4.71-5.89-7.07-2.36-8.24V693l3.54-10.6,9.42-8.24Zm1.18,7.07-5.89,4.71-3.53,10.6,1.18,13,3.53,5.89,5.89,3.54h9.42l7.07-5.89L795,706V690.68l-4.71-7.07-4.71-3.53Z" transform="translate(-50.64 -19.37)"/><path class="cls-6" d="M986.94,673h13l9.42,4.71,4.71,5.89,2.35,4.71,1.18,10.6-2.35,13-4.71,7.06-11.78,5.89h-10.6l-9.42-4.71-5.89-7.07-2.36-5.88V690.68l5.89-11.78,7.07-4.71Zm1.18,7.07-5.89,4.71-3.53,9.42v9.42l3.53,9.42,7.07,4.72h9.42l7.07-5.89,2.35-5.89V691.86l-3.53-7.07-5.89-4.71Z" transform="translate(-50.64 -19.37)"/><path class="cls-6" d="M1274.31,673h13l7.07,3.53,7.07,7.07,2.35,7.07V706l-3.53,9.42-8.25,7.07-5.88,2.35h-10.6l-11.78-5.89-4.71-7.06-2.36-14.14L1259,686l4.71-7.07,7.07-4.71Zm1.18,7.07-7.07,5.89-2.36,5.89V706l3.54,7.06,7.06,4.72h8.25l7.06-4.72,3.54-9.42V693l-3.54-8.24-5.88-4.71Z" transform="translate(-50.64 -19.37)"/><path class="cls-6" d="M1723,673h14.13l7.06,3.53,4.72,5.89v4.71h-8.25l-2.35-4.71-2.36-1.17H1724.2l-3.53,2.35,1.18,5.89,21.2,7.07,5.89,3.53,2.35,4.71v8.24l-4.71,7.07-9.42,4.71h-11.78L1716,721.3l-4.71-5.89-1.18-7.07,8.24-1.17,3.54,7.06,3.53,2.36H1736l4.71-2.36,1.18-8.24-13-3.53-13-4.72-4.71-7.06,1.18-10.6,7.06-5.89Z" transform="translate(-50.64 -19.37)"/><path class="cls-6" d="M2202.36,673h13l8.24,3.53,4.71,7.07v3.53l-8.24,1.18-3.53-5.89-1.18-1.17h-13l-2.35,2.35v5.89l24.73,8.24,4.71,4.72,1.18,8.24-3.53,8.24-7.07,4.71-4.71,1.18h-11.78l-9.42-4.71-4.71-7.07v-4.71l8.24-1.17,2.36,5.88,4.71,3.54h10.6l4.71-3.54v-5.88l-7.07-3.54-15.31-4.71-5.89-4.71-1.17-2.35v-9.43l5.88-7.06Z" transform="translate(-50.64 -19.37)"/><path class="cls-6" d="M1972.71,673h14.13l7.06,3.53,4.72,5.89v4.71h-8.25l-2.35-4.71-2.36-1.17h-11.78l-3.53,3.53,1.18,4.71,22.37,7.07,5.89,4.71,1.18,2.35v9.42l-3.53,5.89-7.07,4.71-3.53,1.18h-11.78l-8.24-3.53-5.89-7.07-1.18-5.89,8.24-1.17,3.54,7.06,4.71,2.36h10.6l4.71-4.71-1.18-5.89L1968,698.92l-5.88-5.89-1.18-8.24,3.53-7.07Z" transform="translate(-50.64 -19.37)"/><path class="cls-6" d="M1330.84,673h11.78l7.06,3.53,3.54,5.89,1.17,7.07v34.15h-8.24l-1.18-1.17L1343.79,686l-4.71-4.71h-8.24l-5.89,3.53L1322.6,693l-1.18,30.62h-8.25V674.19h8.25l1.18,4.71,5.88-4.71Z" transform="translate(-50.64 -19.37)"/><path class="cls-6" d="M2104.61,673h10.6l7.07,3.53,3.53,4.72,1.18,3.53v38.86h-8.25l-1.17-34.15-1.18-7.07-11.78-1.17-5.89,3.53-2.35,3.53-1.18,35.33H2087V674.19H2094l1.18,4.71,5.89-4.71Z" transform="translate(-50.64 -19.37)"/><path class="cls-6" d="M911.57,673h10.6l7.06,3.53,3.54,4.72,1.17,3.53v38.86H925.7l-1.18-35.33-1.18-5.89-11.77-1.17-5.89,3.53-2.36,3.53-1.18,35.33H893.9V674.19H901l1.17,4.71,5.89-4.71Z" transform="translate(-50.64 -19.37)"/><path class="cls-6" d="M1907.93,673h13l7.07,3.53,4.71,5.89,1.18,5.89-8.24,1.18-2.36-7.07-3.53-1.17h-10.6l-5.89,5.88-2.36,13,2.36,10.6,4.71,4.71,2.36,1.18h8.24l5.89-4.71,2.35-5.89H1935l-1.18,7.06-3.53,5.89-7.07,4.71-4.71,1.18h-9.42l-9.42-4.71-5.89-7.07-2.36-8.24V693l3.53-10.6,9.43-8.24Z" transform="translate(-50.64 -19.37)"/><path class="cls-6" d="M1204.82,673h13l7.06,3.53,4.71,5.89,1.18,5.89-8.24,1.18-2.36-7.07-3.53-1.17H1206l-5.89,5.88-1.18,3.54v16.49l3.54,7.06,4.71,2.36h8.24l4.71-1.18,2.36-7.07,1.18-2.35h8.24l-1.18,7.06-4.71,7.07-5.89,3.53-4.71,1.18H1206l-9.42-4.71-4.71-5.89-2.36-4.71-1.18-14.13,2.36-10.6,8.24-9.42Z" transform="translate(-50.64 -19.37)"/><path class="cls-6" d="M955.14,654.17h14.14v7.06l-2.36,1.18-8.24,1.18L957.5,666V673l8.24,1.18v5.89l-8.24,1.18-1.18,42.39h-8.24V680.08H941v-5.89h7.07v-10.6l3.53-7.07Z" transform="translate(-50.64 -19.37)"/><path class="cls-6" d="M1553.43,674.19h8.25v60.06l-3.54,7.07-4.71,2.36H1544l-1.18-4.72,1.18-3.53h8.24Z" transform="translate(-50.64 -19.37)"/><path class="cls-6" d="M738.44,674.19h8.24v60.06l-3.53,7.07-4.71,2.36H729L727.84,739l1.18-3.53h8.24Z" transform="translate(-50.64 -19.37)"/><path class="cls-6" d="M1642.94,673h8.24l3.54,2.36-2.36,7.06h-8.24l-5.89,5.89-1.18,7.07-1.18,28.26h-8.24V674.19h8.24l1.18,4.71Z" transform="translate(-50.64 -19.37)"/><path class="cls-6" d="M828,673h8.24l3.53,2.36-2.35,7.06h-8.25l-5.88,5.89-1.18,7.07-1.18,28.26h-8.24V674.19h8.24l1.18,4.71Z" transform="translate(-50.64 -19.37)"/><path class="cls-6" d="M1041.12,673h8.24l3.53,2.36-2.35,7.06h-9.42l-3.54,3.54-2.35,8.24-1.18,29.44h-8.24V674.19h8.24l1.18,4.71Z" transform="translate(-50.64 -19.37)"/><path class="cls-6" d="M2011.57,674.19h8.24v49.46h-8.24Z" transform="translate(-50.64 -19.37)"/><path class="cls-6" d="M1942.08,674.19h8.25v49.46h-8.25Z" transform="translate(-50.64 -19.37)"/><path class="cls-6" d="M871.52,674.19h8.25v49.46h-8.25Z" transform="translate(-50.64 -19.37)"/><path class="cls-6" d="M1240.15,674.19h7.07l1.18,2.35-1.18,47.11h-7.07l-1.17-1.17V675.37Z" transform="translate(-50.64 -19.37)"/><path class="cls-6" d="M1369.71,714.23h9.42v15.31l-5.89,7.07-3.53-1.18,2.35-4.71,2.36-7.07h-4.71Z" transform="translate(-50.64 -19.37)"/><path class="cls-6" d="M1281.38,654.17H1292l-4.71,7.06-4.71,5.89h-7.06l4.71-11.77Z" transform="translate(-50.64 -19.37)"/><path class="cls-6" d="M2011.57,655.35h8.24v9.42h-8.24Z" transform="translate(-50.64 -19.37)"/><path class="cls-6" d="M1942.08,655.35h8.25v9.42h-8.25Z" transform="translate(-50.64 -19.37)"/><path class="cls-6" d="M1553.43,655.35h8.25v9.42h-8.25Z" transform="translate(-50.64 -19.37)"/><path class="cls-6" d="M871.52,655.35h8.25v9.42h-8.25Z" transform="translate(-50.64 -19.37)"/><path class="cls-6" d="M738.44,655.35h8.24v9.42h-8.24Z" transform="translate(-50.64 -19.37)"/><path class="cls-6" d="M1240.15,655.35h7.07v9.42h-7.07l-1.17-1.18v-7.07Z" transform="translate(-50.64 -19.37)"/><path class="cls-1" d="M439.29,77.08" transform="translate(-50.64 -19.37)"/><path class="cls-1" d="M440.47,75.9" transform="translate(-50.64 -19.37)"/><path class="cls-1" d="M441.65,74.72" transform="translate(-50.64 -19.37)"/><path class="cls-1" d="M442.83,73.54" transform="translate(-50.64 -19.37)"/><path class="cls-1" d="M444,72.37" transform="translate(-50.64 -19.37)"/></svg>