<svg xmlns="http://www.w3.org/2000/svg" viewBox="0 0 467.99 1080.99">
	<defs>
		<style>.cls-1{
			fill:none;stroke:#93c01f;
			stroke-miterlimit:10;
			stroke-width:1px;
			}
		</style>
	</defs>
	<g id="Capa_2" data-name="Capa 2">
		<g id="Capa_1-2" data-name="Capa 1">
			<path class="cls-1" d="M8.05,145.43c-5.8,22.63-11.47,49.75-3.91,70.8,3.31,9.22,8.7,15.59,14.1,21.22,40.7,42.46,89,57,136,70.68,19.32,5.64,38.93,11.29,58.41,7.78,27.81-5,53.83-28.42,81.76-30.8,9.81-.83,20,1.16,28.53,9.56s15,24.18,14.57,41c-.75,29.47-19.65,45.46-34.67,59.93C286,411.79,271,433.53,258.85,459.26c-11,23.39-19.79,50.28-33.23,69.6-23.45,33.73-56.2,38.29-86.19,49s-62.88,35.56-71.52,85.85c-2,11.88-2.59,24.7-6.12,35.5-5.2,15.91-15.66,24.14-23.51,36.45-13.81,21.66-19,56.12-17,88s10.47,61.54,20.46,88.65c3.83,10.41,8,20.76,13.85,28,7.48,9.28,16.93,12.5,26.12,14.22a102.16,102.16,0,0,0,45.81-1.92c20.88-5.69,41-17.9,62-23.06s43.78-2.32,60.77,19.19c15.16,19.18,23.36,49.95,33.5,77.14s25.05,53.73,43.9,54.63c18.66.89,34.21-23.55,46.1-48.19a613.43,613.43,0,0,0,29.63-73.72c6.48-19.6,12.28-40.12,20.82-57.25s20.49-30.83,33.65-31.38"/>
			<path class="cls-1" d="M14.75,136.37c-2.41,14.74-5,32.19-3.54,48.47a69.24,69.24,0,0,0,4.89,21,55.58,55.58,0,0,0,11.42,16.93c1.24,1.3,2.51,2.54,3.76,3.76,30,29.11,63,46.48,96.39,60.42C140.8,292.47,154,297.25,167,302.06c18.55,6.87,37.32,14.21,55.66,12.14,14.8-1.66,28.92-9.57,43.08-15.94,10.92-4.9,21.82-9.12,33-9.68,9-.43,18.44,1.68,26.13,9.91s13.35,23.51,12.59,39.65c-1,21.89-12.21,36.2-24,48.26-3.4,3.48-6.86,6.77-10.13,10-16.21,16-30.63,37.24-42.3,62.31-10.61,22.8-19.1,48.93-32,68-22.31,32.83-53.37,38.25-81.84,49.5-20.6,8.13-42.61,23.18-56.65,48.88a119.23,119.23,0,0,0-12.43,35.37c-2.2,11.47-3,23.81-6.63,34.26C66.37,710,56.2,718.08,48.5,730,37.76,746.71,32.1,771,31,795.77c-.3,6.55-.27,13.16.07,19.66,1.63,31,9.5,60.11,19.26,86.41,1.17,3.14,2.38,6.28,3.66,9.31,2.87,6.75,6.09,13,10,17.78,7.32,8.91,16.5,12.09,25.4,14a104.16,104.16,0,0,0,43.91,0c15.41-3.42,30.37-10.48,45.67-15.37a121.19,121.19,0,0,1,13.54-3.58c20.23-4,42.4-.62,59.3,19.73,9.15,11,16.09,25.68,22.41,41.18,4.28,10.4,8.38,21.13,12.61,31.09,9.46,22.25,22,43.27,37.87,47.64a21.69,21.69,0,0,0,5.62.82c18.47.16,34.31-22.74,46.4-46.48a533.85,533.85,0,0,0,29.54-71c6.38-18.93,12.08-38.81,20.29-55.55,8.16-16.56,19.48-29.93,31.89-31"/>
			<path class="cls-1" d="M21.45,127.31c-.84,14-2,31.25.44,47.51a71.54,71.54,0,0,0,6.17,20.71,58.7,58.7,0,0,0,12.31,16.52c1.31,1.25,2.65,2.45,4,3.64,30.86,27.95,64,46.55,97.33,62.79,12.79,6.23,25.66,11.81,38.23,17.52,17.77,8.07,35.79,19,52.92,16.5,13.72-2,27-7.66,40.16-12.93,10.08-4,20-7.47,30.26-7.53,8.21-.05,16.86,2.22,23.72,10.27s11.71,22.83,10.61,38.32c-1.42,21-12.37,34.85-23.79,46.76-3.28,3.4-6.6,6.63-9.75,9.8-15.61,15.74-29.45,36.54-40.67,60.95-10.21,22.21-18.35,47.62-30.67,66.33-21.07,32-50.54,38.22-77.49,50C135.58,583,114.65,598.09,101,622.89a123,123,0,0,0-12.49,34.23c-2.34,11.08-3.47,22.92-7.13,33-5.31,14.67-15.15,22.66-22.7,34.27C48.15,740.63,42.37,764,40.94,788.12c-.36,6.35-.42,12.77-.17,19.11,1.23,30.07,8.54,58.66,18.07,84.15,1.15,3.06,2.34,6.11,3.61,9,2.85,6.55,6.06,12.53,10,17.16,7.15,8.55,16.06,11.7,24.67,13.74a106.9,106.9,0,0,0,42,1.85c14.67-2.4,28.87-8.25,43.5-12.11a115.49,115.49,0,0,1,13-2.75c19.55-2.8,41,1.09,57.83,20.29,9.23,10.55,16.49,24.28,23.17,38.72,4.5,9.72,9,19.67,13.37,28.66,9.83,20.13,22,38.37,37.6,41.74a22.33,22.33,0,0,0,5.48.57c18.3-.58,34.4-21.94,46.7-44.77,11.22-20.83,21-43.89,29.45-68.38,6.29-18.26,11.89-37.49,19.77-53.84,7.77-16,18.45-29,30.11-30.6"/>
			<path class="cls-1" d="M28.15,118.25c.73,13.23.85,30.31,4.43,46.55A74.53,74.53,0,0,0,40,185.18a61.12,61.12,0,0,0,13.2,16.1c1.38,1.21,2.78,2.36,4.16,3.53,31.73,26.8,65,46.57,98.27,65.16,12.45,6.95,25,13.34,37.08,20,17,9.27,33.94,22.86,50.18,20.86,12.79-1.57,25.17-5.75,37.25-9.91,9.24-3.18,18.28-5.81,27.51-5.38,7.4.35,15.28,2.76,21.31,10.63s10,22.16,8.63,37c-1.89,20-12.51,33.52-23.6,45.25-3.15,3.34-6.35,6.51-9.37,9.63-15,15.5-28.26,35.83-39.05,59.58-9.81,21.62-17.62,46.28-29.38,64.69-19.88,31.14-47.71,38.21-73.15,50.51-18.61,9-38.45,24.05-51.63,48a127.32,127.32,0,0,0-12.57,33.09c-2.48,10.68-3.9,22-7.62,31.78-5.37,14.06-14.9,21.92-22.3,33.18-10.4,15.78-16.29,38.28-18,61.69-.44,6.15-.58,12.38-.42,18.55.83,29.18,7.58,57.23,16.88,81.91,1.13,3,2.31,5.93,3.57,8.77a67.43,67.43,0,0,0,9.88,16.56c7,8.15,15.62,11.28,23.94,13.49,13.6,3.61,27,5,40.1,3.73,13.93-1.39,27.38-6,41.33-8.84a109.46,109.46,0,0,1,12.42-1.91c18.88-1.62,39.68,2.78,56.34,20.83,9.32,10.1,16.92,22.87,23.94,36.26,4.74,9,9.57,18.2,14.13,26.25,10.19,18,22,33.46,37.34,35.84a23.12,23.12,0,0,0,5.34.3c18.12-1.32,34.47-21.13,47-43.06,11.26-19.73,20.92-42,29.37-65.7,6.19-17.59,11.65-36.19,19.23-52.14,7.34-15.44,17.43-28.12,28.34-30.2"/>
			<path class="cls-1" d="M34.85,109.19c2.29,12.47,3.73,29.36,8.41,45.59A78.55,78.55,0,0,0,52,174.83a64.45,64.45,0,0,0,14.11,15.68c1.43,1.17,2.91,2.28,4.34,3.41,32.59,25.67,66,46.54,99.23,67.53,12.11,7.66,24.25,14.88,35.93,22.41,16.23,10.46,31.93,22.93,47.43,25.22,11.82,1.75,23.31-3.84,34.34-6.89,8.4-2.33,16.52-4.14,24.76-3.22,6.6.74,13.7,3.31,18.91,11,5.34,7.88,8.37,21.48,6.64,35.66-2.33,19.09-12.67,32.17-23.41,43.75-3,3.26-6.09,6.37-9,9.45-14.39,15.25-27.07,35.12-37.41,58.22-9.41,21-16.9,44.93-28.09,63.05-18.71,30.27-44.89,38.19-68.81,51-17.62,9.44-36.37,24.49-49.13,47.5a132.78,132.78,0,0,0-12.63,31.95c-2.63,10.28-4.34,21.14-8.13,30.53-5.42,13.44-14.64,21.18-21.9,32.09-10.21,15.33-16.22,37-18.24,59.68-.51,5.95-.73,12-.66,18,.43,28.28,6.62,55.78,15.7,79.65,1.1,2.89,2.26,5.75,3.51,8.5a64.9,64.9,0,0,0,9.79,15.95c6.85,7.78,15.19,10.87,23.21,13.25,13.07,3.86,25.82,6,38.21,5.62,13.17-.39,25.89-3.8,39.15-5.59a110.47,110.47,0,0,1,11.86-1.07c18.23-.42,38.34,4.48,54.87,21.39,9.41,9.63,17.34,21.46,24.7,33.8,5,8.35,10.15,16.72,14.89,23.82,10.54,15.83,22,28.57,37.07,29.94a25.06,25.06,0,0,0,5.2,0c18-2.09,34.54-20.33,47.29-41.36,11.29-18.63,20.93-40,29.28-63,6.13-16.91,11.44-34.87,18.71-50.44,6.93-14.86,16.4-27.21,26.57-29.8"/>
			<path class="cls-1" d="M41.54,100.14c3.87,11.7,6.59,28.4,12.41,44.62a82.77,82.77,0,0,0,10,19.72,67.7,67.7,0,0,0,15,15.27c1.5,1.12,3,2.19,4.54,3.29,33.42,24.55,67.08,46.46,100.17,69.9,11.78,8.35,23.55,16.4,34.79,24.85,15.45,11.63,29.9,25.75,44.69,29.59,10.71,2.78,21.45-1.95,31.42-3.89,7.57-1.47,14.76-2.47,22-1.06,5.81,1.13,12.14,3.89,16.51,11.35,4.56,7.77,6.72,20.8,4.66,34.33-2.77,18.15-12.82,30.82-23.22,42.23-2.9,3.19-5.84,6.24-8.62,9.27-13.78,15-25.88,34.42-35.78,56.86-9,20.42-16.18,43.59-26.81,61.41-17.53,29.39-42.07,38.19-64.46,51.5-16.64,9.89-34.3,24.93-46.62,47a139.84,139.84,0,0,0-12.7,30.81c-2.78,9.89-4.77,20.25-8.63,29.29-5.48,12.83-14.39,20.45-21.5,31-10,14.89-16.21,35.64-18.48,57.66A171.14,171.14,0,0,0,70,782.62,218.6,218.6,0,0,0,84.5,860c1.08,2.81,2.23,5.58,3.46,8.24a61.74,61.74,0,0,0,9.71,15.33c6.68,7.41,14.74,10.47,22.48,13,12.52,4.11,24.6,6.93,36.31,7.5,12.42.61,24.4-1.56,37-2.32a108.65,108.65,0,0,1,11.3-.23c17.59.78,37,6.16,53.4,21.93,9.51,9.17,17.77,20,25.47,31.35,5.22,7.67,10.72,15.22,15.63,21.39,10.88,13.66,22,23.68,36.82,24a26.92,26.92,0,0,0,5.05-.22c17.81-2.86,34.61-19.51,47.59-39.65C400,942.85,409.59,922.3,417.88,900c6.05-16.24,11.24-33.56,18.18-48.74,6.54-14.29,15.38-26.31,24.8-29.41"/>
			<path class="cls-1" d="M48.24,91.08c5.43,11,9.43,27.44,16.39,43.66a88,88,0,0,0,11.26,19.39A71.63,71.63,0,0,0,91.78,169c1.57,1.08,3.17,2.11,4.74,3.18,34.23,23.45,68.14,46.33,101.12,72.27,11.46,9,22.85,17.91,33.63,27.3,14.69,12.78,29,26,42,33.94,10.07,1.9,19.61-.05,28.51-.87,6.76-.62,13-.81,19.25,1.09a21.85,21.85,0,0,1,14.1,11.71c3.78,7.7,5.07,20.12,2.68,33-3.2,17.21-13,29.47-23,40.73-2.77,3.12-5.59,6.11-8.24,9.09-13.17,14.78-24.7,33.71-34.16,55.49-8.61,19.83-15.46,42.25-25.52,59.78-16.36,28.5-39.24,38.2-60.11,52C171,578,154.48,593.05,142.58,614.27a149.77,149.77,0,0,0-12.76,29.66c-2.93,9.49-5.21,19.37-9.14,28.05-5.52,12.22-14.13,19.71-21.09,29.91-9.87,14.44-16.16,34.32-18.71,55.64a165.52,165.52,0,0,0-1.14,16.88,202.86,202.86,0,0,0,13.31,75.15c1.06,2.72,2.19,5.4,3.41,8a59.4,59.4,0,0,0,9.62,14.73c6.53,7,14.31,10,21.76,12.76,12,4.35,23.37,7.87,34.41,9.39,11.66,1.6,22.92.67,34.79.94,3.53.08,7.12.18,10.74.6,17,2,35.71,7.84,51.92,22.49a229.05,229.05,0,0,1,26.24,28.88,242,242,0,0,0,16.39,19c11.17,11.47,21.92,18.8,36.55,18.14a31.11,31.11,0,0,0,4.92-.47c17.64-3.66,34.65-18.71,47.88-37.94,11.32-16.45,20.87-36.18,29.1-57.69,6-15.56,11-32.24,17.65-47,6.15-13.72,14.36-25.41,23-29"/>
			<path class="cls-1" d="M54.94,82c7,10.19,12.24,26.5,20.38,42.7a93.14,93.14,0,0,0,12.53,19.06,75.72,75.72,0,0,0,16.78,14.44c1.64,1,3.31,2,4.93,3.06,35,22.37,69.24,46.16,102.07,74.63,11.15,9.67,22.16,19.42,32.49,29.75,13.93,13.93,27.36,28.43,39.2,38.3,9.14,2.69,17.86,1.11,25.6,2.15,5.91.79,11.25.86,16.5,3.25a21.09,21.09,0,0,1,11.69,12.06c3,7.64,3.43,19.45.7,31.67-3.63,16.28-13.14,28.12-22.84,39.23-2.65,3-5.33,6-7.87,8.91-12.56,14.54-23.5,33-32.52,54.12-8.22,19.24-14.75,40.9-24.24,58.14-15.2,27.62-36.41,38.23-55.77,52.5-14.66,10.81-30.09,25.82-41.61,46.12a165.13,165.13,0,0,0-12.82,28.53c-3.09,9.09-5.64,18.47-9.64,26.81-5.57,11.59-13.88,19-20.69,28.82-9.7,14-16.1,33-19,53.62a159.1,159.1,0,0,0-1.38,16.32c-.84,25.59,3.74,51.46,12.13,72.89,1,2.64,2.15,5.23,3.36,7.7a56.49,56.49,0,0,0,9.53,14.11c6.36,6.65,13.87,9.64,21,12.51C147,878,157.67,882.23,168,884.7c10.9,2.6,21.44,2.92,32.61,4.21,3.35.38,6.75.76,10.19,1.44,16.34,3.24,34.41,9.5,50.44,23a287.24,287.24,0,0,1,27,26.43,164.84,164.84,0,0,0,17.15,16.55c11.41,9.28,21.87,13.95,36.29,12.25a35.65,35.65,0,0,0,4.77-.74c17.49-4.46,34.68-17.91,48.18-36.23,11.31-15.36,20.84-34.25,29-55,5.86-14.89,10.83-30.93,17.12-45.33,5.75-13.15,13.33-24.51,21.26-28.62"/>
			<path class="cls-1" d="M61.64,73c8.56,9.43,15,25.56,24.36,41.74a100.07,100.07,0,0,0,13.81,18.73,80.34,80.34,0,0,0,17.67,14c1.7,1,3.44,1.93,5.13,2.94,35.82,21.32,70.36,46,103,77,10.85,10.32,21.48,20.91,31.34,32.19,13.18,15.07,25.72,30.88,36.47,42.67,8.2,3.47,16,3.76,22.68,5.16a36.67,36.67,0,0,1,13.75,5.4,21.33,21.33,0,0,1,9.28,12.42c2.19,7.61,1.78,18.77-1.28,30.34-4.05,15.35-13.3,26.77-22.65,37.72-2.52,3-5.08,5.84-7.49,8.73-12,14.3-22.32,32.3-30.89,52.76-7.82,18.65-14.05,39.55-23,56.51-14,26.72-33.58,38.26-51.42,53-13.67,11.29-28,26.25-39.1,45.65a186.56,186.56,0,0,0-12.9,27.39c-3.24,8.69-6.06,17.59-10.13,25.57-5.61,11-13.64,18.23-20.29,27.73-9.52,13.54-16,31.68-19.18,51.6A150.14,150.14,0,0,0,99.22,758C98,782.7,102,808,110.16,828.65c1,2.55,2.11,5.05,3.31,7.42a53.36,53.36,0,0,0,9.45,13.5c6.19,6.29,13.43,9.22,20.29,12.27,10.9,4.85,20.92,9.74,30.61,13.17,10.14,3.58,20,5.17,30.45,7.46,3.15.7,6.38,1.36,9.62,2.29,15.73,4.51,33.13,11.15,49,23.58,9.87,7.74,19.1,15.82,27.76,24a117.67,117.67,0,0,0,17.91,14.13c11.59,7.09,21.83,9.1,36,6.34a45.15,45.15,0,0,0,4.63-1c17.34-5.3,34.7-17.12,48.48-34.53,11.3-14.28,20.81-32.32,28.93-52.34,5.77-14.22,10.63-29.61,16.59-43.62,5.36-12.58,12.31-23.61,19.49-28.23"/>
			<path class="cls-1" d="M68.34,63.9c10.13,8.67,17.83,24.64,28.35,40.78a106.44,106.44,0,0,0,15.08,18.4,84.79,84.79,0,0,0,18.56,13.61c1.77.94,3.57,1.85,5.33,2.82a436.25,436.25,0,0,1,104,79.38,408.64,408.64,0,0,1,30.19,34.63c12.44,16.2,24.06,33.33,33.72,47,7.27,4.26,14.24,5.72,19.77,8.18a33,33,0,0,1,11,7.56,23.07,23.07,0,0,1,6.89,12.77c1.36,7.59.13,18.09-3.27,29-4.48,14.4-13.47,25.41-22.46,36.21-2.4,2.89-4.82,5.71-7.11,8.55-11.35,14.06-21.13,31.59-29.27,51.39-7.42,18.06-13.34,38.2-21.67,54.87-12.9,25.82-30.74,38.32-47.07,53.5a194.82,194.82,0,0,0-36.6,45.2,219.36,219.36,0,0,0-13,26.25c-3.4,8.29-6.49,16.69-10.64,24.32-5.65,10.37-13.38,17.49-19.88,26.64-9.35,13.09-16,30.36-19.42,49.58A144,144,0,0,0,109,749.8c-1.66,23.8,1.81,48.58,9.74,68.39,1,2.47,2.08,4.88,3.26,7.15a50.94,50.94,0,0,0,9.36,12.9c6,5.91,13,8.8,19.57,12,10.36,5.09,19.68,10.67,28.71,15,9.38,4.56,18.51,7.44,28.27,10.73,3,1,6,2,9.06,3.12,15.12,5.81,31.87,12.79,47.49,24.13,10,7.26,19.56,14.41,28.53,21.51,6.25,5,12.81,9.23,18.67,11.71,11.71,5,21.78,4.28,35.76.45,1.45-.4,3-.72,4.49-1.26,17.17-6.14,34.7-16.32,48.77-32.82,11.27-13.2,20.77-30.4,28.84-49.66,5.68-13.55,10.43-28.29,16.06-41.92,5-12,11.29-22.7,17.72-27.83"/>
			<path class="cls-1" d="M75,54.84c11.7,7.92,20.6,23.73,32.34,39.82a113.81,113.81,0,0,0,16.35,18.07,89.07,89.07,0,0,0,19.45,13.19c1.84.9,3.7,1.77,5.52,2.71a357.8,357.8,0,0,1,104.91,81.75,356.67,356.67,0,0,1,29.05,37.08c11.71,17.32,22.41,35.77,31,51.38,6.34,5.05,12.48,7.74,16.86,11.19a32.47,32.47,0,0,1,8.24,9.72,27.57,27.57,0,0,1,4.48,13.13c.51,7.59-1.51,17.42-5.25,27.69-4.9,13.47-13.63,24.05-22.27,34.71-2.28,2.81-4.57,5.57-6.73,8.36-10.74,13.83-19.95,30.89-27.64,50-7,17.47-12.64,36.84-20.39,53.24-11.76,24.91-27.88,38.38-42.72,54a240.59,240.59,0,0,0-34.09,44.73,275.17,275.17,0,0,0-13,25.11c-3.56,7.89-6.91,15.81-11.14,23.08-5.68,9.76-13.13,16.75-19.48,25.55-9.18,12.65-15.93,29-19.66,47.57a136.64,136.64,0,0,0-2.1,14.65c-2,22.9.86,47.14,8.56,66.13a72.46,72.46,0,0,0,3.2,6.89,48.27,48.27,0,0,0,9.28,12.28c5.86,5.54,12.55,8.38,18.84,11.78,9.82,5.32,18.46,11.58,26.81,16.94a224.13,224.13,0,0,0,26.09,14c2.79,1.32,5.65,2.55,8.51,4,14.49,7.13,30.61,14.41,46,24.68,10.14,6.76,20,13,29.3,19,6.51,4.25,13.26,7.77,19.41,9.28,11.79,2.9,21.76-.52,35.5-5.44,1.41-.51,2.89-.92,4.35-1.53,17-7,34.69-15.54,49.07-31.1,11.22-12.15,20.73-28.48,28.76-47,5.58-12.88,10.23-27,15.53-40.21,4.58-11.44,10.27-21.8,15.95-27.44"/>
			<path class="cls-1" d="M81.74,45.78C95,52.94,105.1,68.61,118.06,84.64a121.92,121.92,0,0,0,17.63,17.73A93.89,93.89,0,0,0,156,115.16c1.91.85,3.83,1.68,5.72,2.58C199.87,136,235.69,163,267.61,201.86a324.53,324.53,0,0,1,27.89,39.53c11,18.44,17.88,39.76,28.24,55.75,4.32,6.66,10.66,9.81,13.94,14.2a35.14,35.14,0,0,1,5.49,11.87c1.05,3.58,2.37,7.68,2.07,13.5-.39,7.59-3.14,16.73-7.22,26.35-5.32,12.53-13.8,22.7-22.09,33.2-2.15,2.74-4.31,5.45-6.36,8.19-10.13,13.59-18.75,30.18-26,48.66-6.61,16.88-11.95,35.48-19.09,51.6-10.65,24-25,38.47-38.39,54.5a330.35,330.35,0,0,0-31.58,44.28c-4.59,7.84-9,15.75-13.09,24-3.73,7.5-7.33,14.93-11.65,21.84-5.71,9.16-12.87,16-19.07,24.46-9,12.2-15.87,27.72-19.89,45.55a130.18,130.18,0,0,0-2.35,14.09c-2.45,22-.1,45.7,7.37,63.89a66,66,0,0,0,3.15,6.61,45.51,45.51,0,0,0,9.19,11.67c5.69,5.18,12.13,8,18.11,11.54,9.29,5.55,17.24,12.49,24.92,18.82a224.94,224.94,0,0,0,23.91,17.26c2.6,1.63,5.28,3.16,8,4.79,13.85,8.49,29.37,16,44.54,25.24,10.29,6.25,20.47,11.56,30.06,16.59,6.77,3.56,13.72,6.36,20.17,6.86,11.86.91,21.73-5.31,35.24-11.35,1.36-.61,2.79-1.12,4.2-1.78,16.83-7.89,34.67-14.79,49.37-29.4,11.16-11.09,20.69-26.56,28.67-44.32,5.48-12.21,10-25.65,15-38.51,4.2-10.86,9.25-20.9,14.18-27"/>
			<path class="cls-1" d="M88.44,36.73c14.83,6.39,26.12,21.94,40.31,37.89A130.89,130.89,0,0,0,147.64,92a99.85,99.85,0,0,0,21.24,12.37c2,.8,4,1.6,5.92,2.47,38.88,17.26,75.21,44.94,106.8,86.49a299.92,299.92,0,0,1,26.75,42c10.28,19.57,16.49,41.74,25.49,60.11,3.51,7.17,8.79,11.9,11,17.22,2.05,4.89,2.46,9.35,2.74,14,.23,4,.64,8.32-.34,13.85-1.34,7.57-4.78,16.06-9.2,25-5.74,11.6-14,21.34-21.9,31.7-2,2.66-4.06,5.31-6,8-9.52,13.34-17.57,29.47-24.38,47.29-6.22,16.29-11.27,34.12-17.81,50-9.53,23.08-22.14,38.55-34,55-9.62,13.3-19.71,28-29.07,43.82-4.51,7.61-8.94,15.14-13.17,22.83-3.89,7.09-7.74,14-12.14,20.59C173.84,653.31,167,660,160.9,668.12c-8.82,11.76-15.8,26.41-20.12,43.53a122.91,122.91,0,0,0-2.59,13.54c-2.84,21.11-1.06,44.26,6.18,61.63a56.67,56.67,0,0,0,3.11,6.35,42.74,42.74,0,0,0,9.1,11.06c5.52,4.8,11.69,7.53,17.38,11.29,8.75,5.78,16,13.4,23,20.71a234.18,234.18,0,0,0,21.73,20.51c2.42,2,4.91,3.78,7.39,5.64,13.18,9.87,28.14,17.6,43.07,25.78A287.36,287.36,0,0,0,300,902.3c7,2.85,14.19,5,20.93,4.43,12-1,21.72-10.08,35-17.24,1.32-.71,2.7-1.33,4.06-2,16.63-8.79,34.62-14,49.67-27.69,11.09-10.06,20.65-24.64,28.58-41.65,5.39-11.54,9.85-24.32,14.48-36.8,3.81-10.29,8.22-20,12.4-26.66"/>
			<path class="cls-1" d="M95.14,27.67C111.53,33.3,124,48.74,139.43,64.6A140.44,140.44,0,0,0,159.6,81.67a104.49,104.49,0,0,0,22.14,12c2,.75,4.08,1.52,6.1,2.35,39.64,16.29,76.51,44.65,107.76,88.86a284,284,0,0,1,25.6,44.41c9.57,20.7,15.33,43.77,22.74,64.47,2.77,7.72,6.87,13.94,8.12,20.24,1.16,5.85.67,11,0,16.18a80.91,80.91,0,0,1-2.74,14.21c-2.33,7.53-6.4,15.39-11.18,23.69C332,378.72,324,388,316.41,398.23c-1.91,2.59-3.8,5.18-5.6,7.83-8.92,13.11-16.38,28.77-22.75,45.93-5.82,15.7-10.6,32.75-16.53,48.33-8.44,22.17-19.24,38.65-29.69,55.5-8.58,13.82-17.66,28.4-26.57,43.36-4.43,7.37-8.87,14.52-13.23,21.68-4.06,6.69-8.16,13.16-12.65,19.36-5.76,7.95-12.36,14.53-18.27,22.28A122.07,122.07,0,0,0,150.77,704a115.53,115.53,0,0,0-2.83,13c-3.24,20.22-2,42.82,5,59.39a51.39,51.39,0,0,0,3.06,6.07,40.12,40.12,0,0,0,9,10.45c5.34,4.44,11.25,7.11,16.65,11.05,8.22,6,14.82,14.3,21.11,22.59s12.57,16.59,19.57,23.78c2.21,2.28,4.52,4.39,6.82,6.47,12.47,11.27,26.92,19.17,41.59,26.34,10.61,5.18,21.4,8.68,31.59,11.67,7.31,2.15,14.7,3.67,21.69,2,12.12-2.87,21.73-14.85,34.71-23.15,1.27-.81,2.6-1.52,3.92-2.3,16.42-9.72,34.55-13.33,50-26,11-9,20.6-22.72,28.5-39,5.28-10.88,9.66-23,13.94-35.1A275.88,275.88,0,0,1,465.69,745"/>
			<path class="cls-1" d="M101.84,18.61c18,4.87,31.61,20.21,48.28,36a150.23,150.23,0,0,0,21.44,16.74,109.59,109.59,0,0,0,23,11.54c2.1.71,4.21,1.44,6.3,2.24,40.4,15.34,77.84,44.35,108.7,91.23A271.25,271.25,0,0,1,334,223.19c8.89,21.82,14.33,45.88,20,68.82,2.06,8.34,4.92,15.95,5.2,23.26.25,6.78-1.13,12.72-2.77,18.33a106.57,106.57,0,0,1-5.15,14.57c-3.35,7.45-8,14.72-13.16,22.37-6.55,9.74-14.31,18.61-21.52,28.68-1.79,2.51-3.55,5-5.23,7.65-8.3,12.87-15.19,28.06-21.12,44.57-5.42,15.1-9.94,31.37-15.24,46.68-7.35,21.25-16.31,38.75-25.34,56-7.51,14.34-15.59,28.83-24.07,42.9-4.33,7.15-8.81,13.91-13.29,20.54-4.24,6.28-8.57,12.29-13.15,18.12-5.78,7.35-12.11,13.79-17.87,21.19a123.21,123.21,0,0,0-20.59,39.49,110.51,110.51,0,0,0-3.07,12.42c-3.58,19.33-3,41.38,3.8,57.13a43.38,43.38,0,0,0,3,5.8,37.58,37.58,0,0,0,8.93,9.84c5.17,4.08,10.83,6.69,15.93,10.81,7.68,6.22,13.62,15.21,19.21,24.48s11,18.89,17.39,27c2,2.6,4.13,5,6.27,7.31,11.73,12.66,25.69,20.7,40.11,26.88,10.78,4.62,21.86,7.23,32.35,9.22,7.58,1.44,15.24,2.34,22.45-.41,12.35-4.72,21.75-19.61,34.44-29,1.23-.91,2.51-1.73,3.78-2.57,16.19-10.65,34.47-12.65,50.26-24.27,10.92-8,20.55-20.81,28.41-36.31,5.18-10.21,9.48-21.67,13.41-33.39,3.06-9.14,6.18-18.19,8.87-25.87"/>
			<path class="cls-1" d="M108.54,9.55c19.52,4.12,34.36,19.37,52.26,35A159.37,159.37,0,0,0,183.52,61a113.26,113.26,0,0,0,23.92,11.12c2.17.67,4.34,1.37,6.5,2.12,41.15,14.4,79.2,44.06,109.64,93.6a263.86,263.86,0,0,1,23.31,49.31c8.19,22.95,13.4,48.12,17.26,73.19,1.39,9,3,17.92,2.28,26.26a65.42,65.42,0,0,1-5.51,20.5A122,122,0,0,1,353.37,352c-4.39,7.31-9.66,14.06-15.15,21-6.94,8.83-14.51,17.24-21.33,27.18q-2.5,3.63-4.85,7.47c-7.7,12.63-14,27.35-19.49,43.2-5,14.51-9.3,30-14,45.05a554.89,554.89,0,0,1-21,56.5A340.63,340.63,0,0,1,236,594.86c-4.25,6.92-8.75,13.29-13.36,19.41-4.42,5.86-9,11.41-13.65,16.87-5.8,6.76-11.86,13.06-17.47,20.1a125.9,125.9,0,0,0-20.83,37.47,104.58,104.58,0,0,0-3.31,11.87c-4,18.43-3.94,39.94,2.61,54.88A40.9,40.9,0,0,0,173,761a35.13,35.13,0,0,0,8.85,9.23c5,3.72,10.4,6.25,15.19,10.56,7.17,6.44,12.43,16.12,17.32,26.37s9.53,21.17,15.21,30.3a98.52,98.52,0,0,0,5.71,8.15c11,14,24.47,22.21,38.64,27.43,10.94,4,22.31,5.77,33.11,6.76,7.85.72,15.81,1,23.2-2.83,12.65-6.59,21.8-24.37,34.19-35,1.19-1,2.41-1.93,3.63-2.82,15.94-11.6,34.38-12,50.56-22.57,10.82-7.07,20.47-18.91,28.32-33.64A190,190,0,0,0,459.8,751.3c2.69-8.56,5.15-17.29,7.1-25.48"/>
			<path class="cls-1" d="M115.24.49C136.33,3.85,152.35,19,171.49,34.55c13.86,11.24,33.66,22.58,48.8,26.78,44.48,12.32,85.69,43,117.29,98,20,34.77,33.07,80.93,36.67,129.3.73,9.76,1.07,19.87-.63,29.28a74.77,74.77,0,0,1-8.27,22.65c-13.61,25.06-33.24,38-48.22,60.66-33.29,50.39-38.34,139.39-70.71,191.52-20.41,32.87-50.21,48.38-65.7,88.36-8.15,21-10.39,52.7.77,69.19,6.51,9.64,15.79,11.49,23.22,18.94,13.34,13.37,18.41,41.69,28.45,61.81,17.88,35.83,48.67,41.29,76.2,41.27,8.09,0,16.39-.31,23.95-5.25,13-8.47,21.85-29.11,33.93-40.84,16.33-15.88,36.52-13.78,54.34-24,22.49-12.83,40.49-46.54,45.92-86"/>
		</g>
	</g>
</svg>
	