<svg id="Capa_1" data-name="Capa 1" xmlns="http://www.w3.org/2000/svg" viewBox="0 0 609.61 823.61">
	<defs>
    <filter id="waveFilter">
      <feTurbulence
        type="fractalNoise"
        baseFrequency="0.005 0.005"
        numOctaves="3"
        result="turbulence"
      />
      <feDisplacementMap
        in="SourceGraphic"
        in2="turbulence"
        scale="50"
        xChannelSelector="R"
        yChannelSelector="G"
      />
    </filter>
    <style>
      .cls-1 {
        fill: none;
        stroke: #95c11f;
        stroke-miterlimit: 10;
      }
    </style>
  </defs>

	<g class="wave-group" filter="url(#waveFilter)">
		
		<path class="cls-1" d="M9.6,119.26C2,136.5-5.36,157.15,4.5,173.19c4.31,7,11.34,11.87,18.38,16.16,53,32.34,115.94,43.39,177.18,53.83,25.17,4.3,50.73,8.6,76.12,5.93,36.24-3.81,70.15-21.65,106.55-23.46,12.79-.63,26.09.88,37.18,7.28s19.54,18.42,19,31.21c-1,22.45-25.61,34.63-45.18,45.65a199.25,199.25,0,0,0-57.26,48.51c-14.35,17.81-25.8,38.29-43.31,53C262.58,437,219.9,440.48,180.82,448.63S98.87,475.72,87.61,514c-2.66,9-3.37,18.81-8,27-6.77,12.11-20.4,18.38-30.63,27.76-18,16.5-24.8,42.74-22.15,67s13.63,46.87,26.65,67.52c5,7.93,10.47,15.81,18,21.31,9.76,7.07,22.07,9.53,34.05,10.83A224.8,224.8,0,0,0,165.3,734c27.21-4.33,53.46-13.63,80.73-17.56s57.06-1.77,79.21,14.61c19.75,14.61,30.44,38,43.66,58.76s32.64,40.93,57.2,41.61c24.32.68,44.6-17.94,60.08-36.7a390,390,0,0,0,38.62-56.15c8.44-14.93,16-30.57,27.14-43.61s26.7-23.48,43.85-23.9" transform="translate(0.74 -8.36)"/>
		<path class="cls-1" d="M18.33,112.36c-5.53,16.3-11.25,36.27-.64,52a34.88,34.88,0,0,0,4,4.86c4.25,4.4,9.63,7.88,15,11.05a269.88,269.88,0,0,0,31.86,15.95c42.87,18,89.45,27.9,134.79,37.91l12.31,2.73c24.86,5.57,49.66,12.09,73.7,11,13.41-.62,26.42-3.88,39.21-7.19,11.65-3,23.11-6.32,34.69-8.67a143.36,143.36,0,0,1,24.61-3c11.66-.34,23.78,1.32,33.83,7.54s17.61,17.72,16.74,29.94c-1,14.66-12.43,24.84-25.56,33.28-6.09,3.92-12.54,7.46-18.5,10.91a195.22,195.22,0,0,0-55.09,47.5c-13.81,17.35-24.86,37.23-41.6,51.71-29.2,25.29-69.77,29.75-107.16,38.44a202.77,202.77,0,0,0-41.5,14.2c-22.43,10.77-41.49,26.62-48.82,49.66-2.75,8.64-3.69,18-8.27,25.84-6.73,11.6-19.9,17.73-29.85,26.79-15.59,14.21-22.81,35.72-22.74,56.83q0,3.88.36,7.73c2.08,23.46,12.23,45.55,24.68,65.63,4.78,7.71,10.08,15.36,17.43,20.73,9.54,7,21.61,9.41,33.33,10.83q6,.72,11.93,1.16a243.83,243.83,0,0,0,45.89-.78c12.38-1.44,24.55-3.91,36.79-6.46,13.61-2.83,27.31-5.79,41.33-7.45,26.61-3.16,55.76-.94,77.74,14.49a93.66,93.66,0,0,1,19.55,19c9,11.33,16.29,24.22,24.56,35.83,11.42,16,26.81,31,45.91,35.48a49.56,49.56,0,0,0,11,1.32c24,.16,44.52-17.19,60.2-35.28A351.94,351.94,0,0,0,528.26,730c8.34-14.39,15.8-29.5,26.55-42.22s25.56-23,41.77-24" transform="translate(0.74 -8.36)"/>
		<path class="cls-1" d="M27.06,105.46c-3.51,15.37-7.55,34.65,3.82,50a37.77,37.77,0,0,0,4.19,4.76c4.4,4.29,9.89,7.76,15.44,10.9A266,266,0,0,0,83.06,186.8c43.84,17.52,90.93,28.21,136,40.35q6.13,1.64,12.2,3.33c24.54,6.85,48.56,17.87,71.27,16a271.05,271.05,0,0,0,36.54-5.22c10.74-2.37,21.16-5.09,31.66-6.95a129.69,129.69,0,0,1,22.27-2.2c10.54,0,21.48,1.77,30.48,7.82s15.67,17,14.49,28.66c-1.41,14-12.48,23.77-25.12,32-5.88,3.83-12.08,7.32-17.82,10.72a191.77,191.77,0,0,0-52.92,46.49c-13.27,16.89-23.93,36.18-39.88,50.43-27.85,24.87-66.3,30.32-102,39.54a209.47,209.47,0,0,0-39.77,14.45c-21.56,10.64-40.08,25.91-47.65,47.88-2.85,8.24-4,17.11-8.56,24.64-6.7,11.09-19.39,17.08-29.06,25.82C60,574.31,52.72,594.91,52.36,615.25c0,2.49,0,5,.19,7.46,1.53,22.65,10.82,44.21,22.71,63.72,4.57,7.51,9.68,14.92,16.8,20.15,9.33,6.87,21.15,9.29,32.61,10.83,3.89.52,7.78,1,11.65,1.32a271.19,271.19,0,0,0,44.3.91c11.87-.83,23.53-2.59,35.34-4.52,13.16-2.11,26.49-4.48,40.17-5.73,25.94-2.41,54.46-.11,76.28,14.36A95.25,95.25,0,0,1,352,741.56c9.08,10.57,16.56,22.63,25,33.17,11.7,14.61,26.92,27.48,45.79,31a53.51,53.51,0,0,0,10.91,1c23.71-.36,44.43-16.44,60.31-33.86a318.24,318.24,0,0,0,37.73-51.45c8.26-13.84,15.62-28.43,26-40.83s24.43-22.62,39.7-24.12" transform="translate(0.74 -8.36)"/>
		<path class="cls-1" d="M35.79,98.56c-1.48,14.44-3.81,33,8.28,48.05a43.81,43.81,0,0,0,4.39,4.66C53,155.47,58.62,158.9,64.32,162A265.29,265.29,0,0,0,97.57,177.4c44.83,17,92.41,28.54,137.2,42.8q6.09,1.92,12.07,3.93c24.23,8.12,47.22,19,68.84,21.08,11.69,1.11,23.08-1.35,33.88-3.26,9.82-1.73,19.21-3.85,28.62-5.21a115.4,115.4,0,0,1,19.93-1.36c9.42.27,19.18,2.21,27.14,8.1s13.74,16.3,12.24,27.39c-1.78,13.28-12.52,22.7-24.68,30.71-5.67,3.74-11.62,7.18-17.14,10.54a187.93,187.93,0,0,0-50.75,45.48c-12.73,16.43-23,35.12-38.16,49.13-26.5,24.47-62.83,30.91-96.86,40.66a217.4,217.4,0,0,0-38.05,14.7c-20.68,10.51-38.65,25.2-46.47,46.08-2.95,7.85-4.32,16.27-8.84,23.45-6.67,10.57-18.89,16.42-28.28,24.86C73.52,569.71,66.17,589.39,65.38,609q-.15,3.6,0,7.19C66.37,638,74.82,659,86.14,678c4.35,7.3,9.29,14.48,16.18,19.58,9.11,6.77,20.69,9.17,31.89,10.82,3.8.56,7.59,1,11.37,1.49a318.47,318.47,0,0,0,42.69,2.59c11.37-.22,22.52-1.31,33.91-2.59,12.69-1.42,25.65-3.17,39-4,25.27-1.64,53.16.72,74.81,14.24a97.14,97.14,0,0,1,19.57,16.57c9.19,9.82,16.85,21.07,25.45,30.52,12,13.19,27,23.93,45.68,26.6a59.52,59.52,0,0,0,10.76.58c23.41-.87,44.33-15.69,60.42-32.45a287.39,287.39,0,0,0,37.3-49.09c8.16-13.3,15.43-27.36,25.37-39.45s23.28-22.18,37.61-24.22" transform="translate(0.74 -8.36)"/>
		<path class="cls-1" d="M44.52,91.66c.55,13.51-.1,31.38,12.74,46.08a47.27,47.27,0,0,0,4.6,4.57,86,86,0,0,0,16.27,10.61,264.28,264.28,0,0,0,34,15.08c45.83,16.45,93.89,28.86,138.4,45.25q6,2.2,12,4.53c23.91,9.4,45.84,22.45,66.42,26.13,10.76,1.92,21.41-.08,31.21-1.29,8.91-1.1,17.26-2.61,25.59-3.49a100.25,100.25,0,0,1,17.59-.5c8.29.57,16.88,2.65,23.78,8.36s11.81,15.6,10,26.12c-2.14,12.59-12.55,21.63-24.23,29.43-5.45,3.65-11.17,7-16.46,10.36a184.21,184.21,0,0,0-48.58,44.47c-12.19,16-22.05,34.06-36.45,47.83-25.14,24.07-59.35,31.49-91.69,41.78a228.78,228.78,0,0,0-36.33,14.94C163.45,472.3,146,486.41,138,506.22c-3,7.45-4.63,15.42-9.12,22.25-6.64,10.06-18.39,15.77-27.49,23.89C87,565.11,79.62,583.87,78.4,602.68c-.15,2.3-.2,4.61-.15,6.91.42,21,8,41.55,18.76,59.9,4.15,7.09,8.91,14,15.56,19,8.91,6.67,20.23,9.06,31.18,10.82,3.71.6,7.41,1.13,11.08,1.66,14.31,2,27.85,3.75,41.1,4.26,10.86.42,21.5,0,32.46-.64,12.24-.72,24.82-1.86,37.84-2.29,24.61-.89,51.85,1.55,73.35,14.11a101.35,101.35,0,0,1,19.58,15.34c9.26,9.08,17.15,19.49,25.89,27.86,12.3,11.78,27.14,20.38,45.56,22.16a66.85,66.85,0,0,0,10.63.21c23.1-1.39,44.21-15,60.53-31,14.06-13.85,26.17-29.84,36.86-46.75,8.06-12.74,15.23-26.28,24.78-38.05s22.14-21.75,35.53-24.32" transform="translate(0.74 -8.36)"/>
		<path class="cls-1" d="M53.25,84.76c2.57,12.57,3.61,29.75,17.2,44.12a51.06,51.06,0,0,0,4.8,4.47A91.53,91.53,0,0,0,92,143.81a260.36,260.36,0,0,0,34.64,14.79c46.83,15.9,95.38,29.18,139.6,47.69q6,2.51,11.84,5.14c23.59,10.67,44.33,25.81,64,31.18,9.8,2.68,19.74,1.19,28.54.68,8-.46,15.31-1.38,22.56-1.76a86.43,86.43,0,0,1,15.25.34c7.17.87,14.57,3.1,20.43,8.64a26.8,26.8,0,0,1,7.74,24.84c-2.52,11.9-12.6,20.57-23.79,28.15-5.24,3.56-10.71,6.89-15.78,10.17a180.49,180.49,0,0,0-46.41,43.47c-11.65,15.5-21.12,33-34.73,46.53-23.79,23.66-55.91,32-86.54,42.89a242.78,242.78,0,0,0-34.6,15.2c-18.95,10.24-35.82,23.78-44.14,42.51-3.13,7.05-5,14.57-9.41,21.05-6.6,9.55-17.88,15.12-26.71,22.92-13.87,12.26-21.36,30.1-23,48.15-.2,2.21-.31,4.43-.32,6.64-.14,20.22,6.61,40.21,16.79,58,3.93,6.89,8.52,13.6,14.94,18.42,8.69,6.58,19.76,8.95,30.46,10.82,3.62.63,7.23,1.23,10.8,1.83,13.91,2.35,26.85,4.68,39.5,5.94,10.35,1,20.49,1.24,31,1.3,11.78.07,24-.56,36.67-.58,23.94-.12,50.55,2.38,71.88,14a106.36,106.36,0,0,1,19.59,14.1c9.37,8.33,17.46,17.93,26.34,25.21,12.63,10.38,27.25,16.84,45.45,17.72a78.53,78.53,0,0,0,10.48-.15c22.8-1.92,44.09-14.22,60.65-29.62,13.92-12.94,25.86-28.22,36.42-44.4,8-12.2,15-25.21,24.19-36.66s21-21.32,33.45-24.43" transform="translate(0.74 -8.36)"/>
		<path class="cls-1" d="M62,77.86C66.58,89.5,69.3,106,83.63,120a62.37,62.37,0,0,0,5,4.37,98.44,98.44,0,0,0,17.11,10.31,258.87,258.87,0,0,0,35.34,14.5c47.84,15.35,96.86,29.51,140.81,50.14q6,2.78,11.71,5.74c23.28,11.95,42.73,29,61.56,36.23,8.82,3.36,18.08,2.46,25.87,2.64,7.1.18,13.37-.13,19.54,0a74.09,74.09,0,0,1,12.91,1.19c6,1.18,12.27,3.55,17.08,8.92a25.81,25.81,0,0,1,5.49,23.56c-2.89,11.21-12.64,19.51-23.35,26.87-5,3.48-10.25,6.75-15.1,10a177.21,177.21,0,0,0-44.24,42.46c-11.12,15-20.18,31.93-33,45.23-22.43,23.26-52.44,32.58-81.38,44a266,266,0,0,0-32.88,15.44c-18.07,10.12-34.4,23.07-43,40.73-3.23,6.64-5.26,13.72-9.7,19.85-6.56,9-17.37,14.46-25.92,22-13.44,11.78-21,28.7-23.08,46-.25,2.11-.42,4.23-.49,6.35-.7,19.41,5.21,38.89,14.82,56.09,3.72,6.68,8.13,13.15,14.31,17.85,8.49,6.46,19.31,8.83,29.74,10.81,3.54.67,7.06,1.32,10.52,2,13.53,2.66,25.86,5.61,37.91,7.63a280.52,280.52,0,0,0,29.57,3.24c11.32.69,23.16.75,35.51,1.14,23.27.63,49.25,3.21,70.42,13.86a112.81,112.81,0,0,1,19.59,12.87c9.48,7.58,17.8,16.35,26.78,22.55,13,9,27.37,13.29,45.34,13.28a94.33,94.33,0,0,0,10.34-.52c22.5-2.43,44-13.49,60.77-28.2,13.77-12,25.55-26.59,36-42,7.87-11.66,14.84-24.14,23.6-35.27s19.85-20.89,31.36-24.54" transform="translate(0.74 -8.36)"/>
		<path class="cls-1" d="M70.71,71c6.63,10.71,11,26.5,26.11,40.2,1.64,1.49,3.39,2.91,5.22,4.27a106.46,106.46,0,0,0,17.54,10.16,256.57,256.57,0,0,0,36,14.21c48.84,14.78,98.34,29.83,142,52.59,3.95,2,7.82,4.16,11.6,6.33,23,13.24,43.08,28.95,59.13,41.29a158.62,158.62,0,0,0,23.2,4.61c6.18.81,11.42,1.1,16.5,1.69a61.28,61.28,0,0,1,10.57,2.05c4.92,1.48,10,4,13.73,9.18a25.3,25.3,0,0,1,3.25,22.29c-3.26,10.53-12.68,18.44-22.91,25.59-4.82,3.39-9.79,6.6-14.42,9.8a174.15,174.15,0,0,0-42.07,41.46c-10.58,14.57-19.24,30.87-31.3,43.94-21.08,22.85-49,33.15-76.22,45.11a301.16,301.16,0,0,0-31.16,15.7c-17.2,10-33,22.36-41.79,38.94-3.33,6.24-5.58,12.87-10,18.65-6.53,8.53-16.86,13.81-25.13,21-13,11.28-20.64,27.29-23.15,43.81q-.46,3-.66,6.08c-1.25,18.6,3.8,37.55,12.85,54.19,3.5,6.46,7.74,12.7,13.69,17.26,8.28,6.36,18.84,8.71,29,10.81,3.45.71,6.87,1.41,10.24,2.16,13.14,2.95,24.87,6.53,36.3,9.31A257,257,0,0,0,247,688.81c10.86,1.4,22.32,2.08,34.34,2.85,22.6,1.45,47.95,4,68.95,13.75A122.9,122.9,0,0,1,369.94,717c9.58,6.83,18.14,14.77,27.22,19.9,13.37,7.55,27.48,9.74,45.23,8.84,3.29-.15,6.69-.43,10.2-.89a123.26,123.26,0,0,0,60.87-26.78c13.61-11.16,25.24-25,35.55-39.7,7.77-11.11,14.65-23.07,23-33.88s18.7-20.46,29.28-24.65" transform="translate(0.74 -8.36)"/>
		<path class="cls-1" d="M79.44,64.06C88.09,73.84,94.16,88.94,110,102.3c1.72,1.45,3.54,2.83,5.43,4.17a114.56,114.56,0,0,0,17.95,10,255.93,255.93,0,0,0,36.73,13.92c49.85,14.21,99.82,30.16,143.22,55q5.88,3.34,11.47,6.93c22.64,14.51,42,31.86,56.71,46.34a198.06,198.06,0,0,0,20.53,6.57c5.27,1.45,9.47,2.34,13.47,3.43a49.4,49.4,0,0,1,8.23,2.89,21.49,21.49,0,0,1,10.38,9.46,25.66,25.66,0,0,1,1,21c-3.66,9.83-12.72,17.38-22.47,24.31-4.61,3.3-9.34,6.46-13.74,9.62A171.45,171.45,0,0,0,359,356.44c-10,14.11-18.29,29.82-29.58,42.65-19.71,22.44-45.5,33.73-71.06,46.23-9.59,4.69-19.64,10-29.44,15.94-16.3,9.89-31.56,21.65-40.61,37.16-3.43,5.84-5.9,12-10.28,17.45-6.49,8-16.36,13.16-24.35,20-12.58,10.8-20.27,25.89-23.22,41.64-.35,1.93-.63,3.86-.82,5.81-1.81,17.79,2.4,36.22,10.88,52.28,3.29,6.26,7.35,12.26,13.06,16.69,8.07,6.26,18.39,8.59,28.31,10.8,3.35.75,6.69,1.5,9.95,2.33,12.75,3.25,23.88,7.45,34.71,11a238.06,238.06,0,0,0,26.69,7.12c10.41,2.11,21.5,3.39,33.18,4.56,21.94,2.22,46.65,4.87,67.49,13.63a136.56,136.56,0,0,1,19.61,10.39c9.69,6.07,18.5,13.17,27.67,17.24,13.77,6.11,27.59,6.2,45.11,4.4,3.25-.32,6.6-.72,10.06-1.26,21.88-3.47,43.63-12.06,61-25.36,13.42-10.29,24.93-23.34,35.11-37.35,7.67-10.57,14.45-22,22.42-32.49s17.56-20,27.2-24.75" transform="translate(0.74 -8.36)"/>
		<path class="cls-1" d="M88.17,57.16c10.68,8.84,18.42,23.26,35,36.28,1.79,1.41,3.68,2.76,5.63,4.08a124.86,124.86,0,0,0,18.38,9.85A253.42,253.42,0,0,0,184.63,121c50.87,13.63,101.3,30.48,144.42,57.49q5.83,3.63,11.35,7.53a276,276,0,0,1,54.29,51.39c6.75,3.53,13.06,6.26,17.86,8.54,4.36,2.08,7.52,3.58,10.44,5.15a40.28,40.28,0,0,1,5.89,3.75,20,20,0,0,1,7,9.72,27.38,27.38,0,0,1-1.25,19.74c-4,9.14-12.77,16.31-22,23-4.4,3.2-8.88,6.3-13.06,9.42a169.07,169.07,0,0,0-37.74,39.44C352.34,369.86,344.47,385,334,397.56c-18.36,22-42,34.31-65.91,47.34-9,4.9-18.41,10.32-27.71,16.2-15.43,9.75-30.14,20.94-39.45,35.37-3.52,5.44-6.2,11.17-10.56,16.25-6.46,7.51-15.85,12.5-23.56,19-12.15,10.31-19.91,24.49-23.29,39.48-.4,1.82-.73,3.67-1,5.53-2.37,17,1,34.88,8.91,50.37,3.07,6.05,7,11.82,12.44,16.11,7.85,6.16,17.92,8.48,27.58,10.81,3.27.78,6.52,1.58,9.68,2.48,12.36,3.56,22.88,8.38,33.11,12.68a218.14,218.14,0,0,0,25.25,9.06,240.34,240.34,0,0,0,32,6.28c21.27,3,45.35,5.7,66,13.5a159.37,159.37,0,0,1,19.62,9.15c9.8,5.33,18.88,11.56,28.12,14.59,14.18,4.65,27.69,2.65,45,0,3.2-.48,6.51-1,9.91-1.63,21.58-4,43.45-11.37,61.11-23.94,13.23-9.43,24.62-21.71,34.67-35,7.58-10,14.26-20.93,21.83-31.1s16.41-19.59,25.11-24.86" transform="translate(0.74 -8.36)"/>
		<path class="cls-1" d="M96.91,50.26C109.6,58.17,119,71.91,136.39,84.58c1.87,1.36,3.82,2.68,5.84,4A137,137,0,0,0,161,98.27a253.52,253.52,0,0,0,38.12,13.33c51.88,13.05,102.79,30.8,145.63,59.93q5.79,3.91,11.23,8.14a231.32,231.32,0,0,1,51.85,56.44c5.93,4.09,11.4,7.53,15.2,10.51a53.6,53.6,0,0,1,7.4,6.88,35.43,35.43,0,0,1,3.55,4.59,22.89,22.89,0,0,1,3.69,10,31.22,31.22,0,0,1-3.5,18.47c-4.4,8.44-12.81,15.24-21.6,21.75-4.18,3.11-8.41,6.16-12.37,9.24A166.33,166.33,0,0,0,364.65,356c-8.95,13.18-16.42,27.69-26.15,40-17,21.63-38.56,34.9-60.74,48.46-8.37,5.11-17.19,10.62-26,16.44-14.56,9.62-28.72,20.23-38.27,33.59-3.61,5-6.52,10.32-10.85,15.05-6.42,7-15.34,11.85-22.77,18.08A73.19,73.19,0,0,0,156.51,565c-.45,1.73-.84,3.49-1.16,5.26a79.16,79.16,0,0,0,6.94,48.46c2.86,5.84,6.56,11.38,11.81,15.54,7.64,6.06,17.47,8.36,26.87,10.8,3.18.82,6.34,1.67,9.39,2.65,12,3.85,21.89,9.3,31.52,14.36a203.17,203.17,0,0,0,23.8,11,180.15,180.15,0,0,0,30.85,8c20.6,3.73,44.05,6.53,64.55,13.38a193.61,193.61,0,0,1,19.64,7.92c9.9,4.57,19.26,9.92,28.55,11.93,14.62,3.15,27.81-.9,44.89-4.47,3.16-.66,6.42-1.3,9.78-2,21.27-4.5,43.25-10.69,61.21-22.52,13-8.58,24.31-20.09,34.23-32.65,7.49-9.48,14.07-19.86,21.25-29.71s15.27-19.16,23-25" transform="translate(0.74 -8.36)"/>
		<path class="cls-1" d="M105.64,43.36c14.72,7,25.81,20,43.94,32.36q2.92,2,6,3.88a149.65,149.65,0,0,0,19.22,9.56,250.91,250.91,0,0,0,38.81,13c52.89,12.46,104.27,31.13,146.83,62.38q5.75,4.2,11.11,8.74c21.7,18.34,38.72,40.58,49.43,61.49,5.1,4.64,9.73,8.8,12.52,12.47a25.2,25.2,0,0,1,4.38,8.61,41.36,41.36,0,0,1,1.21,5.44,38.75,38.75,0,0,1,.33,10.28,39.31,39.31,0,0,1-5.74,17.19c-4.78,7.75-12.85,14.18-21.16,20.47-4,3-8,6-11.68,9.05a164.22,164.22,0,0,0-33.41,37.43C359.06,368.47,352,382.38,343,394.51c-15.65,21.22-35.1,35.48-55.59,49.56-7.75,5.33-15.95,10.93-24.27,16.7-13.69,9.49-27.3,19.52-37.1,31.8-3.71,4.64-6.84,9.47-11.14,13.85-6.38,6.48-14.84,11.2-22,17.12a74.47,74.47,0,0,0-23.43,35.14q-.76,2.45-1.33,5a72.8,72.8,0,0,0,5,46.56,41.13,41.13,0,0,0,11.2,15c7.42,6,17,8.25,26.15,10.8,3.09.86,6.15,1.76,9.11,2.82,11.59,4.15,20.9,10.22,29.91,16a191.29,191.29,0,0,0,22.37,12.94,143.47,143.47,0,0,0,29.68,9.72c19.93,4.49,42.75,7.36,63.09,13.25,6.94,2,13.44,4.32,19.64,6.68,10,3.81,19.64,8.27,29,9.28,15.05,1.62,27.92-4.44,44.78-8.91,3.11-.82,6.32-1.59,9.63-2.38,21-5,43-10,61.33-21.1,12.82-7.75,24-18.46,33.79-30.3,7.39-8.93,13.88-18.79,20.66-28.32s14.12-18.73,21-25.08" transform="translate(0.74 -8.36)"/>
		<path class="cls-1" d="M114.37,36.46c16.75,6,29.51,18.42,48.4,30.4,2,1.28,4.11,2.54,6.25,3.78a163.85,163.85,0,0,0,19.63,9.41A249.79,249.79,0,0,0,228.16,92.8c53.91,11.86,105.75,31.45,148,64.83q5.7,4.49,11,9.34c21.39,19.61,34.29,45.15,47,66.54,3.44,5.78,8.06,10.06,9.85,14.44a20.1,20.1,0,0,1,1.35,10.34,51.28,51.28,0,0,1-1.13,6.29,108.49,108.49,0,0,1-3,10.54,57.25,57.25,0,0,1-8,15.92c-5.15,7.06-12.89,13.11-20.72,19.19-3.76,2.94-7.5,5.87-11,8.87a162.68,162.68,0,0,0-31.24,36.42c-7.87,12.25-14.54,25.57-22.71,37.46-14.3,20.82-31.63,36.07-50.44,50.68-7.14,5.54-14.72,11.23-22.54,16.94-12.82,9.36-25.89,18.81-35.93,30-3.81,4.24-7.15,8.62-11.43,12.65-6.35,6-14.33,10.54-21.2,16.15a76.59,76.59,0,0,0-23.49,33q-.84,2.31-1.5,4.7c-4,14.55-3.22,30.89,3,44.65a38.51,38.51,0,0,0,10.57,14.39c7.22,5.86,16.55,8.12,25.43,10.79,3,.9,6,1.85,8.84,3,11.19,4.46,19.9,11.14,28.31,17.72,6.79,5.32,13.41,10.52,20.92,14.88a118.76,118.76,0,0,0,28.52,11.43c19.26,5.25,41.45,8.19,61.62,13.13,6.88,1.7,13.4,3.56,19.65,5.45,10.13,3,20,7.23,29.45,6.62,15.44-1,28-8,44.66-13.35,3.07-1,6.24-1.88,9.49-2.75,20.67-5.53,42.81-9.42,61.45-19.69,12.59-6.93,23.68-16.82,33.35-27.94,7.29-8.39,13.68-17.72,20.07-26.93s13-18.3,18.86-25.18" transform="translate(0.74 -8.36)"/>
		<path class="cls-1" d="M123.1,29.56C141.87,34.67,156.28,46.4,176,58c2.09,1.24,4.25,2.46,6.45,3.68a179.86,179.86,0,0,0,20.06,9.26,248.21,248.21,0,0,0,40.2,12.46c54.93,11.25,107.23,31.78,149.24,67.28q5.65,4.77,10.87,9.94c21.06,20.89,33.71,47.47,44.58,71.59,2.75,6.12,6.39,11.33,7.18,16.4a22.28,22.28,0,0,1-1.68,12.07,61.85,61.85,0,0,1-3.47,7.14c-1.83,3.29-3.85,6.65-6.37,10.82a99.91,99.91,0,0,1-10.25,14.64c-5.51,6.37-12.93,12.05-20.27,17.91-3.55,2.85-7,5.73-10.32,8.69a161.41,161.41,0,0,0-29.07,35.4c-7.33,11.8-13.61,24.52-21,36.17-12.94,20.41-28.15,36.67-45.27,51.79-6.53,5.76-13.5,11.54-20.83,17.2-11.95,9.22-24.46,18.09-34.75,28.23-3.91,3.84-7.47,7.77-11.72,11.45-6.31,5.46-13.82,9.89-20.41,15.18a79.63,79.63,0,0,0-23.56,30.8q-.91,2.17-1.67,4.43c-4.59,13.74-4.63,29.56,1,42.74a35.61,35.61,0,0,0,9.94,13.81c7,5.77,16.09,8,24.72,10.79,2.92.94,5.8,2,8.55,3.15,10.81,4.75,18.92,12.05,26.72,19.4,6.29,5.93,12.39,11.84,19.48,16.82a102,102,0,0,0,27.35,13.15c18.61,6,40.15,9,60.16,13,6.81,1.37,13.35,2.8,19.66,4.21,10.23,2.3,20.38,4.9,29.89,4,15.86-1.55,28.14-11.54,44.54-17.79,3-1.15,6.15-2.17,9.36-3.12,20.36-6,42.57-8.83,61.55-18.27,12.37-6.14,23.38-15.2,32.92-25.59,7.2-7.84,13.49-16.65,19.48-25.54S601.07,583.39,606,576" transform="translate(0.74 -8.36)"/>
		<path class="cls-1" d="M131.83,22.66c20.8,4.18,36.89,15.22,57.32,26.47,2.17,1.21,4.39,2.4,6.66,3.59a198.12,198.12,0,0,0,20.47,9.11A249.94,249.94,0,0,0,257.18,74c56,10.54,108.71,32.1,150.45,69.73q5.61,5,10.74,10.53c20.75,22.17,33.41,49.89,42.15,76.65,2.13,6.5,4.73,12.6,4.52,18.37-.19,5.26-2.22,9.77-4.72,13.79a71.11,71.11,0,0,1-5.81,8c-2.95,3.59-6.14,7.09-9.72,11.1s-7.5,8.55-12.49,13.36c-5.87,5.7-13,11-19.83,16.63-3.34,2.76-6.59,5.59-9.64,8.5-10.54,10-19.31,21.73-26.9,34.4-6.8,11.34-12.67,23.45-19.28,34.87a258.14,258.14,0,0,1-40.12,52.91,251.57,251.57,0,0,1-19.1,17.44c-11.1,9.06-23.05,17.39-33.58,26.45-4,3.43-7.79,6.92-12,10.26-6.28,4.94-13.31,9.23-19.62,14.2a83.94,83.94,0,0,0-23.63,28.64c-.66,1.35-1.28,2.73-1.84,4.15-5.15,12.93-6,28.22-.95,40.84A32.8,32.8,0,0,0,215.12,598c6.77,5.68,15.62,7.89,24,10.78a77.53,77.53,0,0,1,8.27,3.32c10.42,5.05,17.95,13,25.12,21.08,5.79,6.52,11.37,13.16,18,18.76a89.41,89.41,0,0,0,26.18,14.86c17.94,6.73,38.85,9.85,58.69,12.88q10.13,1.56,19.67,3c10.34,1.53,20.73,3.19,30.33,1.31,16.24-3.17,28.26-15.08,44.44-22.23,3-1.31,6.06-2.46,9.21-3.49,20.06-6.57,42.33-8.28,61.67-16.85,12.14-5.37,23.07-13.57,32.48-23.24a159.92,159.92,0,0,0,18.89-24.15,270.23,270.23,0,0,0,14.7-25.4" transform="translate(0.74 -8.36)"/>
		<path class="cls-1" d="M140.56,15.76c22.83,3.25,40.59,13.6,61.77,24.51q3.38,1.75,6.87,3.49a221.19,221.19,0,0,0,20.9,9C244,57.93,259,62.36,271.69,64.6c57,10,110.2,32.42,151.65,72.18q5.57,5.33,10.62,11.13c20.44,23.45,33.29,52.43,39.73,81.7,1.53,6.94,3.05,13.87,1.85,20.34-1.1,5.9-4.17,11-7.75,15.52a86.4,86.4,0,0,1-8.15,8.84c-4.08,3.89-8.45,7.53-13.07,11.36s-9.44,7.85-14.74,12.09c-6.24,5-13,9.92-19.39,15.35-3.13,2.67-6.13,5.44-9,8.32-9.73,9.84-17.73,21.22-24.73,33.39-6.26,10.87-11.73,22.39-17.57,33.57-10.22,19.61-21.15,37.89-35,54a170.49,170.49,0,0,1-17.38,17.7c-10.22,8.93-21.62,16.67-32.41,24.66-4.09,3-8.09,6.07-12.29,9.06-6.24,4.43-12.81,8.57-18.83,13.23-9.57,7.4-17.75,16.08-23.7,26.47q-1.08,1.89-2,3.87c-5.71,12.13-7.43,26.9-2.92,38.94A30.13,30.13,0,0,0,225.37,589c6.57,5.59,15.17,7.78,23.29,10.78a65.3,65.3,0,0,1,8,3.49c10,5.35,17,13.87,23.53,22.76,5.28,7.13,10.33,14.49,16.59,20.7a80.44,80.44,0,0,0,25,16.58c17.27,7.48,37.55,10.67,57.23,12.75,6.68.71,13.26,1.27,19.67,1.75,10.45.75,21.06,1.47,30.78-1.35,16.59-4.81,28.37-18.63,44.32-26.67a81.64,81.64,0,0,1,9.08-3.86c19.75-7.08,42.07-7.78,61.78-15.43a97.39,97.39,0,0,0,32-20.9A121.41,121.41,0,0,0,595,586.84a133.94,133.94,0,0,0,12.61-25.51" transform="translate(0.74 -8.36)"/>
		<path class="cls-1" d="M149.29,8.86C176.78,11.42,197.65,23,222.6,34.8c18.06,8.56,43.87,17.2,63.6,20.4,58,9.39,111.68,32.75,152.86,74.62a172.89,172.89,0,0,1,47.8,98.49c.94,7.44,1.38,15.14-.82,22.3-2,6.54-6.12,12.24-10.78,17.25-17.75,19.09-43.33,28.94-62.85,46.21-43.39,38.38-50,106.17-92.15,145.87-26.61,25-65.44,36.86-85.63,67.3-10.62,16-13.54,40.14,1,52.71,8.49,7.34,20.58,8.75,30.27,14.42,17.39,10.19,24,31.76,37.08,47.08,23.29,27.29,63.42,31.45,99.3,31.44,10.55,0,21.36-.24,31.22-4,16.9-6.45,28.48-22.18,44.21-31.11,21.29-12.09,47.6-10.5,70.83-18.24,29.31-9.77,52.76-35.45,59.84-65.52" transform="translate(0.74 -8.36)"/>
	</g>
</svg>